<svg width="100" height="100" viewBox="0 0 100 100" fill="none" xmlns="http://www.w3.org/2000/svg">
<rect width="100" height="100" rx="10" fill="#E5F4FF"/>
<path d="M43 71C56.2548 71 67 60.2548 67 47C67 33.7452 56.2548 23 43 23C29.7452 23 19 33.7452 19 47C19 60.2548 29.7452 71 43 71Z" fill="#1A4A79"/>
<path d="M43 67C54.0457 67 63 58.0457 63 47C63 35.9543 54.0457 27 43 27C31.9543 27 23 35.9543 23 47C23 58.0457 31.9543 67 43 67Z" fill="#EDEFF1"/>
<path d="M43 47.429C47.9706 47.429 52 43.3995 52 38.429C52 33.4584 47.9706 29.429 43 29.429C38.0294 29.429 34 33.4584 34 38.429C34 43.3995 38.0294 47.429 43 47.429Z" fill="#1A4A79"/>
<path d="M48.143 50.429H37.857C32.221 50.429 27.649 54.964 27.578 60.583C31.348 64.86 36.851 67.572 43 67.572C49.149 67.572 54.652 64.86 58.422 60.583C58.351 54.963 53.779 50.429 48.143 50.429Z" fill="#1A4A79"/>
<path d="M65 77C72.732 77 79 70.732 79 63C79 55.268 72.732 49 65 49C57.268 49 51 55.268 51 63C51 70.732 57.268 77 65 77Z" fill="#4B86C6"/>
<path d="M74 69V67H73V66H72.833L72 61H73V60H74V58L65 52L56 58V60H57V61H58L57.167 66H57V67H56V69H55V71H75V69H74ZM69 60V61H70L69.167 66H69V67H67V66H66.833L66 61H67V60H69ZM60.833 66L60 61H61V60H63V61H64L63.167 66H63V67H61V66H60.833Z" fill="#EDEFF1"/>
</svg>
