<svg width="104" height="104" viewBox="0 0 104 104" fill="none" xmlns="http://www.w3.org/2000/svg">
<g filter="url(#filter0_d)">
<rect x="2" width="100" height="100" rx="10" fill="#ECECF2"/>
<path d="M45 71C58.2548 71 69 60.2548 69 47C69 33.7452 58.2548 23 45 23C31.7452 23 21 33.7452 21 47C21 60.2548 31.7452 71 45 71Z" fill="#1F2138"/>
<path d="M45 67C56.0457 67 65 58.0457 65 47C65 35.9543 56.0457 27 45 27C33.9543 27 25 35.9543 25 47C25 58.0457 33.9543 67 45 67Z" fill="#ECECF2"/>
<path d="M45 47.429C49.9706 47.429 54 43.3995 54 38.429C54 33.4584 49.9706 29.429 45 29.429C40.0294 29.429 36 33.4584 36 38.429C36 43.3995 40.0294 47.429 45 47.429Z" fill="#1F2138"/>
<path d="M50.143 50.429H39.857C34.221 50.429 29.649 54.964 29.578 60.583C33.348 64.86 38.851 67.572 45 67.572C51.149 67.572 56.652 64.86 60.422 60.583C60.351 54.963 55.779 50.429 50.143 50.429Z" fill="#1F2138"/>
<path d="M67 77C74.732 77 81 70.732 81 63C81 55.268 74.732 49 67 49C59.268 49 53 55.268 53 63C53 70.732 59.268 77 67 77Z" fill="#76788E"/>
<path d="M76 69V67H75V66H74.833L74 61H75V60H76V58L67 52L58 58V60H59V61H60L59.167 66H59V67H58V69H57V71H77V69H76ZM71 60V61H72L71.167 66H71V67H69V66H68.833L68 61H69V60H71ZM62.833 66L62 61H63V60H65V61H66L65.167 66H65V67H63V66H62.833Z" fill="#ECECF2"/>
</g>
<defs>
<filter id="filter0_d" x="0" y="0" width="104" height="104" filterUnits="userSpaceOnUse" color-interpolation-filters="sRGB">
<feFlood flood-opacity="0" result="BackgroundImageFix"/>
<feColorMatrix in="SourceAlpha" type="matrix" values="0 0 0 0 0 0 0 0 0 0 0 0 0 0 0 0 0 0 127 0"/>
<feOffset dy="2"/>
<feGaussianBlur stdDeviation="1"/>
<feColorMatrix type="matrix" values="0 0 0 0 0 0 0 0 0 0 0 0 0 0 0 0 0 0 0.12 0"/>
<feBlend mode="normal" in2="BackgroundImageFix" result="effect1_dropShadow"/>
<feBlend mode="normal" in="SourceGraphic" in2="effect1_dropShadow" result="shape"/>
</filter>
</defs>
</svg>
