<svg width="104" height="104" viewBox="0 0 104 104" fill="none" xmlns="http://www.w3.org/2000/svg">
<g filter="url(#filter0_d)">
<rect x="2" width="100" height="100" rx="10" fill="#E2F5EF"/>
<g clip-path="url(#clip0)">
<path d="M36.4524 35.2273H69.0455C69.1436 35.2273 69.2332 35.2642 69.3252 35.2919L70.1263 32.6594C70.3811 31.8222 71.1533 31.25 72.0284 31.25H76.0057C76.5548 31.25 77 31.6952 77 32.2443V34.233C77 34.7821 76.5548 35.2273 76.0057 35.2273H73.5014L67.2888 55.6428L69.6091 58.3498C70.5261 59.4196 70.9391 60.8938 70.517 62.2382C69.9772 63.9576 68.4597 65.0568 66.7101 65.0568H38.2216C37.6724 65.0568 37.2272 64.6116 37.2272 64.0624V62.0738C37.2272 61.5247 37.6724 61.0795 38.2216 61.0795H66.7102L63.5582 57.4022C63.479 57.3098 63.4207 57.2054 63.3606 57.1022H44.0923C42.5511 57.1022 41.1487 56.2121 40.4924 54.8177L33.5539 40.0735C33.3549 39.6492 33.25 39.1782 33.25 38.7111V38.4295C33.25 36.6611 34.6838 35.2273 36.4524 35.2273Z" fill="#00B361"/>
<path d="M65.0682 75.0001C62.8716 75.0001 61.0909 73.2194 61.0909 71.0228C61.0909 68.8262 62.8716 67.0455 65.0682 67.0455C67.2648 67.0455 69.0455 68.8262 69.0455 71.0228C69.0455 73.2194 67.2648 75.0001 65.0682 75.0001Z" fill="#00B361"/>
<path d="M41.2045 75.0001C39.0079 75.0001 37.2272 73.2194 37.2272 71.0228C37.2272 68.8262 39.0079 67.0455 41.2045 67.0455C43.4011 67.0455 45.1818 68.8262 45.1818 71.0228C45.1818 73.2194 43.4011 75.0001 41.2045 75.0001Z" fill="#00B361"/>
<path d="M63.5 33.2515C64.4175 33.2515 64.9836 32.2031 64.3943 31.5953L58.9391 25.9687C58.4822 25.4974 57.6182 25.6428 57.2565 26.2518L53.9146 31.8784C53.5338 32.5196 53.954 33.2515 54.7029 33.2515L63.0001 33.2515L63.5 33.2515Z" fill="#7AD4AC"/>
<path d="M48.7356 25.4045C48.5867 25.0972 48.2632 24.9067 47.8904 24.9067L39.4163 24.9067C38.6067 24.9067 38.0278 25.7493 38.3948 26.3935L42.3203 33.2847C42.4794 33.5641 42.7884 33.7333 43.1395 33.7333L51.028 33.7333C51.8105 33.7333 52.388 32.9406 52.0754 32.2956L48.7356 25.4045Z" fill="#7AD4AC"/>
</g>
</g>
<defs>
<filter id="filter0_d" x="0" y="0" width="104" height="104" filterUnits="userSpaceOnUse" color-interpolation-filters="sRGB">
<feFlood flood-opacity="0" result="BackgroundImageFix"/>
<feColorMatrix in="SourceAlpha" type="matrix" values="0 0 0 0 0 0 0 0 0 0 0 0 0 0 0 0 0 0 127 0"/>
<feOffset dy="2"/>
<feGaussianBlur stdDeviation="1"/>
<feColorMatrix type="matrix" values="0 0 0 0 0 0 0 0 0 0 0 0 0 0 0 0 0 0 0.12 0"/>
<feBlend mode="normal" in2="BackgroundImageFix" result="effect1_dropShadow"/>
<feBlend mode="normal" in="SourceGraphic" in2="effect1_dropShadow" result="shape"/>
</filter>
<clipPath id="clip0">
<rect width="50" height="50" fill="white" transform="matrix(-1 0 0 1 77 25)"/>
</clipPath>
</defs>
</svg>
