<svg width="104" height="104" viewBox="0 0 104 104" fill="none" xmlns="http://www.w3.org/2000/svg">
<g filter="url(#filter0_d)">
<rect x="2" width="100" height="100" rx="10" fill="#FFFDFD"/>
<g clip-path="url(#clip0)">
<path d="M51.322 26.1553L29.828 36.5317C29.5585 36.6618 29.3873 36.9347 29.3873 37.2339V62.7665C29.3873 63.0658 29.5586 63.3386 29.828 63.4687L51.322 73.8452C51.7504 74.052 52.2497 74.052 52.678 73.8452L74.172 63.4687C74.4415 63.3386 74.6127 63.0658 74.6127 62.7665V37.2339C74.6127 36.9347 74.4414 36.6618 74.172 36.5317L52.678 26.1553C52.2497 25.9486 51.7504 25.9486 51.322 26.1553Z" fill="#FF8274"/>
<path d="M29.517 36.8068C29.435 36.9316 29.3873 37.0785 29.3873 37.2337V62.7663C29.3873 63.0655 29.5586 63.3384 29.828 63.4685L51.322 73.8448C51.5361 73.9482 51.7681 73.9999 52 73.9999V47.6607L29.517 36.8068Z" fill="#FF6B5A"/>
<path d="M74.483 36.8068C74.565 36.9316 74.6127 37.0785 74.6127 37.2337V62.7663C74.6127 63.0655 74.4414 63.3384 74.172 63.4685L52.678 73.8448C52.4639 73.9482 52.2319 74 52 74V47.6607L74.483 36.8068Z" fill="#FF7666"/>
<path d="M35.8194 61.4053C35.706 61.4053 35.5902 61.3802 35.4813 61.3277L32.1629 59.7256C31.7746 59.5383 31.6124 59.0723 31.7997 58.6847C31.9862 58.2971 32.4538 58.1357 32.8406 58.3215L36.1591 59.9237C36.5474 60.111 36.7096 60.577 36.5222 60.9646C36.3883 61.2431 36.1096 61.4053 35.8194 61.4053Z" fill="#FCECEA"/>
<path d="M38.8737 59.4172C38.7602 59.4172 38.6444 59.3921 38.5356 59.3396L32.1674 56.2655C31.7798 56.0782 31.6169 55.6121 31.8042 55.2246C31.9907 54.8378 32.459 54.6756 32.8451 54.8614L39.2132 57.9355C39.6008 58.1228 39.7637 58.5888 39.5764 58.9764C39.4425 59.2549 39.1638 59.4172 38.8737 59.4172Z" fill="#FFF6D8"/>
<path d="M66.8639 40.4725L44.3019 29.5728L38.3544 32.4556L60.9671 43.3722L66.8639 40.4725Z" fill="#FCECEA"/>
<path d="M60.9671 43.3721V51.829C60.9671 52.1165 61.2676 52.3051 61.5265 52.1801L66.4233 49.8162C66.6928 49.6861 66.864 49.4133 66.864 49.114V40.4725L60.9671 43.3721Z" fill="#FDD3CD"/>
</g>
</g>
<defs>
<filter id="filter0_d" x="0" y="0" width="104" height="104" filterUnits="userSpaceOnUse" color-interpolation-filters="sRGB">
<feFlood flood-opacity="0" result="BackgroundImageFix"/>
<feColorMatrix in="SourceAlpha" type="matrix" values="0 0 0 0 0 0 0 0 0 0 0 0 0 0 0 0 0 0 127 0"/>
<feOffset dy="2"/>
<feGaussianBlur stdDeviation="1"/>
<feColorMatrix type="matrix" values="0 0 0 0 0 0 0 0 0 0 0 0 0 0 0 0 0 0 0.12 0"/>
<feBlend mode="normal" in2="BackgroundImageFix" result="effect1_dropShadow"/>
<feBlend mode="normal" in="SourceGraphic" in2="effect1_dropShadow" result="shape"/>
</filter>
<clipPath id="clip0">
<rect width="48" height="48" fill="white" transform="translate(28 26)"/>
</clipPath>
</defs>
</svg>
