<svg width="100" height="100" viewBox="0 0 100 100" fill="none" xmlns="http://www.w3.org/2000/svg">
<rect width="100" height="100" rx="10" fill="#E5F4FF"/>
<circle cx="50.5" cy="36.5" r="10.5" fill="#1A4A79"/>
<path d="M64.9488 58.001C65.0054 58.5504 64.5498 59 63.9975 59C60.2244 59 59.4231 59 53 59C52.5268 59 51.0979 50 51 50C50.58 50 50.5 50 49 50C48.5 52 47.6827 59 47 59C42.5437 59 41.3407 59 36.0022 59C35.4499 59 34.9946 58.5504 35.0512 58.001C35.6858 51.841 42.1362 47 50 47C57.8638 47 64.3142 51.841 64.9488 58.001Z" fill="#1A4A79"/>
<path d="M57.3482 37.7228C56.696 41.2529 53.3056 43.5859 49.7755 42.9337C46.2454 42.2815 43.9124 38.8911 44.5646 35.3609C45.2168 31.8308 45.5 33.625 48.5 35.5C52.5 38 57.7116 35.756 57.3482 37.7228Z" fill="#E5F4FF"/>
<path fill-rule="evenodd" clip-rule="evenodd" d="M28 62C26.8954 62 26 62.8954 26 64C26 65.1046 26.8954 66 28 66H29V72C29 73.1046 29.8954 74 31 74H69C70.1046 74 71 73.1046 71 72V66H72C73.1046 66 74 65.1046 74 64C74 62.8954 73.1046 62 72 62H28Z" fill="#4B86C6"/>
</svg>
