<svg width="104" height="104" viewBox="0 0 104 104" fill="none" xmlns="http://www.w3.org/2000/svg">
<g filter="url(#filter0_d)">
<rect x="2" width="100" height="100" rx="10" fill="#FCF4E5"/>
<circle cx="52.5" cy="36.5" r="10.5" fill="#FFAA00"/>
<path d="M66.9488 58.001C67.0054 58.5504 66.5498 59 65.9975 59C62.2244 59 61.4231 59 55 59C54.5268 59 53.0979 50 53 50C52.58 50 52.5 50 51 50C50.5 52 49.6827 59 49 59C44.5437 59 43.3407 59 38.0022 59C37.4499 59 36.9946 58.5504 37.0512 58.001C37.6858 51.841 44.1362 47 52 47C59.8638 47 66.3142 51.841 66.9488 58.001Z" fill="#FFAA00"/>
<path d="M59.3482 37.7228C58.696 41.2529 55.3056 43.5859 51.7755 42.9337C48.2454 42.2815 45.9124 38.8911 46.5646 35.3609C47.2168 31.8308 47.5 33.625 50.5 35.5C54.5 38 59.7116 35.756 59.3482 37.7228Z" fill="#FCF4E5"/>
<path fill-rule="evenodd" clip-rule="evenodd" d="M30 62C28.8954 62 28 62.8954 28 64C28 65.1046 28.8954 66 30 66H31V72C31 73.1046 31.8954 74 33 74H71C72.1046 74 73 73.1046 73 72V66H74C75.1046 66 76 65.1046 76 64C76 62.8954 75.1046 62 74 62H30Z" fill="#FAD07A"/>
</g>
<defs>
<filter id="filter0_d" x="0" y="0" width="104" height="104" filterUnits="userSpaceOnUse" color-interpolation-filters="sRGB">
<feFlood flood-opacity="0" result="BackgroundImageFix"/>
<feColorMatrix in="SourceAlpha" type="matrix" values="0 0 0 0 0 0 0 0 0 0 0 0 0 0 0 0 0 0 127 0"/>
<feOffset dy="2"/>
<feGaussianBlur stdDeviation="1"/>
<feColorMatrix type="matrix" values="0 0 0 0 0 0 0 0 0 0 0 0 0 0 0 0 0 0 0.12 0"/>
<feBlend mode="normal" in2="BackgroundImageFix" result="effect1_dropShadow"/>
<feBlend mode="normal" in="SourceGraphic" in2="effect1_dropShadow" result="shape"/>
</filter>
</defs>
</svg>
