<svg width="123" height="123" viewBox="0 0 123 123" fill="none" xmlns="http://www.w3.org/2000/svg">
<path d="M29.7581 90.2661C36.3267 90.2661 41.6613 95.6008 41.6613 102.169C41.6613 108.756 36.3267 114.073 29.7581 114.073C23.1716 114.073 17.8548 108.756 17.8548 102.169C17.8548 95.6008 23.1716 90.2661 29.7581 90.2661ZM33.7258 102.169C33.7258 99.9871 31.9423 98.2016 29.7581 98.2016C27.556 98.2016 25.7903 99.9871 25.7903 102.169C25.7903 104.369 27.556 106.137 29.7581 106.137C31.9423 106.137 33.7258 104.369 33.7258 102.169Z" fill="#656D78"/>
<path d="M29.7581 98.2016C31.9423 98.2016 33.7258 99.9871 33.7258 102.169C33.7258 104.369 31.9423 106.137 29.7581 106.137C27.556 106.137 25.7903 104.369 25.7903 102.169C25.7903 99.9871 27.556 98.2016 29.7581 98.2016Z" fill="#CCD1D9"/>
<path d="M95.2258 98.2016C97.41 98.2016 99.1935 99.9871 99.1935 102.169C99.1935 104.369 97.41 106.137 95.2258 106.137C93.0237 106.137 91.2581 104.369 91.2581 102.169C91.2581 99.9871 93.0237 98.2016 95.2258 98.2016Z" fill="#CCD1D9"/>
<path d="M83.3226 102.169C83.3226 95.6008 88.6393 90.2661 95.2258 90.2661C101.794 90.2661 107.129 95.6008 107.129 102.169C107.129 108.756 101.794 114.073 95.2258 114.073C88.6393 114.073 83.3226 108.756 83.3226 102.169ZM99.1935 102.169C99.1935 99.9871 97.41 98.2016 95.2258 98.2016C93.0237 98.2016 91.2581 99.9871 91.2581 102.169C91.2581 104.369 93.0237 106.137 95.2258 106.137C97.41 106.137 99.1935 104.369 99.1935 102.169Z" fill="#656D78"/>
<path d="M109.113 44.6371L121.016 70.4274H97.2097C92.8055 70.4274 89.2742 66.8763 89.2742 62.4919V44.6371H109.113Z" fill="#22A8FF"/>
<path d="M3.96774 68.4436H27.7742H51.5806H79.3548V44.6371H89.2742V62.4919C89.2742 66.8763 92.8055 70.4274 97.2097 70.4274H121.016V84.3145V94.2339H123V102.169H107.129C107.129 95.6008 101.794 90.2661 95.2258 90.2661C88.6394 90.2661 83.3226 95.6008 83.3226 102.169H41.6613C41.6613 95.6008 36.3267 90.2661 29.7581 90.2661C23.1716 90.2661 17.8548 95.6008 17.8548 102.169L3.96774 102.209V94.2339H0V68.4436H3.96774Z" fill="#00B361"/>
<path d="M121.016 94.2339V84.3145V70.4274H113.081V102.169H123V94.2339H121.016Z" fill="#E2F5EF"/>
<path d="M121.016 70.4274L109.113 44.6371H101.177L113.081 70.4274H121.016Z" fill="#4A89DC"/>
<path d="M19.8387 38.6855H11.9032V44.6371H19.8387V38.6855Z" fill="#ED5565"/>
<path d="M69.4355 8.92741H61.5V18.8468H69.4355V8.92741Z" fill="#ED5565"/>
<path d="M79.3548 44.6371V68.4435H51.5806V48.6048V24.7984V8.92741H61.5V18.8468H69.4355V8.92741H79.3548V44.6371Z" fill="#FFD2A6"/>
<path d="M39.6774 24.7984H51.5807V48.6048H39.6774H27.7742V38.6855V24.7984H39.6774Z" fill="#F7C292"/>
<path d="M39.6774 48.6048H51.5807V68.4436H27.7742V48.6048H39.6774Z" fill="#EAB081"/>
<path d="M11.9032 38.6855V44.6371H19.8387V38.6855H27.7742V48.6048V68.4436H3.96774V38.6855H11.9032Z" fill="#FFD2A6"/>
<path d="M119.032 86.2984H121.016V84.3145V82.3307H119.032C117.935 82.3307 117.048 83.2174 117.048 84.3145C117.048 85.4116 117.935 86.2984 119.032 86.2984Z" fill="#E6E9ED"/>
<path d="M37.6935 24.7984V28.7661C37.6935 29.8632 38.5803 30.75 39.6774 30.75C40.7745 30.75 41.6613 29.8632 41.6613 28.7661V24.7984H37.6935Z" fill="#ED5565"/>
<path d="M37.6935 54.5564C37.6935 55.6535 38.5803 56.5403 39.6774 56.5403C40.7745 56.5403 41.6613 55.6535 41.6613 54.5564V48.6048H37.6935V54.5564Z" fill="#ED5565"/>
</svg>
