<svg width="123" height="123" viewBox="0 0 123 123" fill="none" xmlns="http://www.w3.org/2000/svg">
<path d="M113.205 31.0431H94.2889C92.7288 31.0431 91.464 29.7783 91.464 28.2182V15.6405H113.205C114.254 15.6405 114.875 16.8155 114.284 17.6825L110.928 22.6061C110.625 23.05 110.625 23.6338 110.928 24.0775L114.284 29.0011C114.875 29.8683 114.254 31.0431 113.205 31.0431Z" fill="#FF6B5A"/>
<path d="M96.5841 25.7195H82.0852V10.6414H96.5841C98.1441 10.6414 99.409 11.9063 99.409 13.4664V22.8946C99.409 24.4547 98.1441 25.7195 96.5841 25.7195Z" fill="#DD636E"/>
<path d="M82.0852 39.827C81.0899 39.827 80.2834 39.0206 80.2834 38.0253V7.99693C80.2834 7.00164 81.0899 6.19518 82.0852 6.19518C83.0805 6.19518 83.887 7.00164 83.887 7.99693V38.0253C83.887 39.0203 83.0805 39.827 82.0852 39.827Z" fill="#30579D"/>
<path d="M66.7683 69.5882L49.3499 115.003H114.821L97.4021 69.5882L82.8833 62.19L66.7683 69.5882Z" fill="#36B1FF"/>
<path d="M94.297 68.006L93.2066 73.8176L109.003 115.003H114.821L97.4021 69.5882L94.297 68.006Z" fill="#22A8FF"/>
<path d="M82.0842 69.4455C86.1764 69.4455 86.1764 75.2111 90.2686 75.2111C93.9766 75.2111 94.3247 70.4771 97.4021 69.5885L85.1946 37.7605C84.1013 34.9104 80.0689 34.9104 78.9756 37.7605L66.7683 69.5882C69.8453 70.4771 70.1934 75.2109 73.9009 75.2109C77.9926 75.2111 77.9926 69.4455 82.0842 69.4455Z" fill="#F4FBFF"/>
<path d="M93.2066 73.8176C94.5618 72.3468 95.411 70.1633 97.4021 69.5882L85.1946 37.7603C84.1596 35.062 80.4922 34.92 79.1764 37.3305C79.4068 37.7524 78.4567 35.3985 93.2066 73.8176Z" fill="#E4F6FF"/>
<path d="M33.6299 79.5306L22.3485 86.298L8.1795 115.003H65.0531L50.884 86.2977L33.6299 79.5306Z" fill="#36B1FF"/>
<path d="M46.6009 84.7999L46.3028 91.2297L58.0375 115.003H65.0531L50.884 86.2977L46.6009 84.7999Z" fill="#22A8FF"/>
<path d="M28.8324 91.8125C32.7238 91.8125 32.7238 86.0469 36.6153 86.0469C40.5074 86.0469 40.5074 91.8125 44.3992 91.8125C47.8016 91.8125 48.2297 87.4064 50.884 86.2977L39.6026 63.4428C38.381 60.9679 34.8518 60.9679 33.6302 63.4428L22.3488 86.2977C25.0024 87.4064 25.4305 91.8125 28.8324 91.8125Z" fill="#F4FBFF"/>
<path d="M46.3028 91.2297C48.1062 89.9952 48.8272 87.1568 50.884 86.2977L39.6026 63.4428C38.381 60.9679 34.8518 60.9679 33.6299 63.4428L33.1084 64.4993L46.3028 91.2297Z" fill="#E4F6FF"/>
<path d="M121.198 116.805H1.80176C0.806467 116.805 0 115.998 0 115.003C0 114.008 0.806467 113.201 1.80176 113.201H121.198C122.194 113.201 123 114.008 123 115.003C123 115.998 122.194 116.805 121.198 116.805Z" fill="#22A8FF"/>
</svg>
