<svg id="Capa_1" enable-background="new 0 0 512 512" height="512" viewBox="0 0 512 512" width="512" xmlns="http://www.w3.org/2000/svg"><g><path d="m481.513 129.22h-89.026c-6.494 0-11.759-5.265-11.759-11.759v-52.356h100.785l-21.853 32.058z" fill="#da4a54"/><path d="m328.745 157.182-123.321 321.53h272.53l-123.322-321.53c-4.551-11.865-21.336-11.865-25.887 0z" fill="#90d8f9"/><path d="m354.632 157.182c-4.308-11.232-19.574-11.823-25.051-1.789.308.565.592 1.157.835 1.789l123.322 321.531h24.216z" fill="#75cef9"/><path d="m341.684 289.074c17.034 0 17.034 24 34.068 24 15.435 0 16.884-19.706 29.694-23.405l-50.815-132.487c-4.551-11.864-21.336-11.864-25.887 0l-50.814 132.486c12.808 3.7 14.257 23.405 29.69 23.405 17.032.001 17.032-23.999 34.064-23.999z" fill="#f4fbff"/><path d="m387.982 307.273c5.641-6.122 9.176-15.211 17.464-17.605l-50.815-132.487c-4.308-11.232-19.574-11.823-25.051-1.789.959 1.756-2.996-8.042 58.402 151.881z" fill="#e4f6ff"/><path d="m139.988 264.087-105.94 214.625h236.742l-105.94-214.625c-5.086-10.302-19.776-10.302-24.862 0z" fill="#90d8f9"/><path d="m164.85 264.087c-5.085-10.302-19.776-10.302-24.862 0l-2.171 4.398 103.77 210.227h29.204z" fill="#75cef9"/><path d="m120.018 382.179c16.198 0 16.198-24 32.397-24 16.201 0 16.201 24 32.401 24 14.163 0 15.945-18.341 26.994-22.956l-46.96-95.136c-5.085-10.302-19.776-10.302-24.861 0l-46.96 95.136c11.046 4.615 12.828 22.956 26.989 22.956z" fill="#f4fbff"/><path d="m192.74 379.753c7.507-5.139 10.508-16.954 19.07-20.53l-46.96-95.136c-5.085-10.302-19.776-10.302-24.862 0l-2.171 4.398z" fill="#e4f6ff"/><path d="m402.041 107.06h-60.353v-62.764h60.353c6.494 0 11.759 5.265 11.759 11.759v39.246c0 6.494-5.265 11.759-11.759 11.759z" fill="#dd636e"/><path d="m504.5 471.212h-21.391l-121.474-316.716c-2.255-5.878-6.821-10.277-12.446-12.364v-27.572h24.039v2.901c0 10.619 8.64 19.259 19.26 19.259h23.64c4.143 0 7.5-3.357 7.5-7.5s-3.357-7.5-7.5-7.5h-23.64c-2.349 0-4.26-1.91-4.26-4.259v-2.901h13.813c10.619 0 19.259-8.64 19.259-19.259v-22.696h46.023l-13.86 20.333c-1.737 2.549-1.737 5.9 0 8.449l13.86 20.333h-21.209c-4.143 0-7.5 3.357-7.5 7.5s3.357 7.5 7.5 7.5h35.398c2.78 0 5.332-1.537 6.631-3.995s1.132-5.433-.434-7.729l-18.973-27.833 18.974-27.833c1.565-2.297 1.732-5.271.434-7.729s-3.851-3.995-6.631-3.995h-60.213v-1.55c0-10.619-8.64-19.259-19.259-19.259h-52.853v-3.509c0-4.143-3.357-7.5-7.5-7.5s-7.5 3.357-7.5 7.5v108.844c-5.625 2.087-10.192 6.486-12.446 12.364l-88.599 231.002-61.568-124.73c-3.625-7.345-10.966-11.908-19.156-11.908s-15.531 4.563-19.156 11.908l-76.018 154.004c-1.833 3.714-.309 8.211 3.406 10.045 3.717 1.833 8.212.309 10.045-3.406l24.752-50.146c.714.986 1.428 2.035 2.154 3.11 4.36 6.458 10.33 15.303 22.416 15.303s18.056-8.846 22.415-15.305c4.17-6.179 6.24-8.695 9.981-8.695 3.742 0 5.812 2.517 9.983 8.696 4.36 6.458 10.331 15.304 22.418 15.304s18.058-8.845 22.418-15.303c.726-1.076 1.44-2.125 2.154-3.111l49.335 99.948h-212.608l11.012-22.31c1.833-3.714.309-8.211-3.406-10.045-3.715-1.829-8.211-.308-10.045 3.406l-14.289 28.948h-21.886c-4.143 0-7.5 3.357-7.5 7.5s3.357 7.5 7.5 7.5h497c4.143 0 7.5-3.357 7.5-7.5s-3.357-7.499-7.5-7.499zm-102.459-419.416c2.349 0 4.259 1.91 4.259 4.259v39.246c0 2.349-1.91 4.259-4.259 4.259h-52.853v-47.764zm-207.239 314.186c-4.172 6.18-6.243 8.696-9.985 8.696s-5.813-2.517-9.985-8.696c-4.359-6.459-10.33-15.304-22.416-15.304s-18.056 8.846-22.415 15.305c-4.17 6.179-6.24 8.695-9.981 8.695s-5.812-2.517-9.983-8.695c-2.104-3.117-4.383-6.486-7.397-9.283l44.076-89.293c1.58-3.201 4.516-3.547 5.705-3.547s4.125.346 5.705 3.547l44.074 89.293c-3.015 2.797-5.294 6.166-7.398 9.282zm47.382 37.832 39.295-102.452c.981 1.22 1.962 2.6 2.993 4.053 4.541 6.397 10.759 15.159 23.149 15.159 12.392 0 18.612-8.761 23.154-15.158 1.379-1.942 2.682-3.777 4.031-5.275 2.773-3.077 2.526-7.819-.551-10.592-3.075-2.774-7.819-2.529-10.592.551-1.933 2.145-3.553 4.426-5.119 6.633-4.462 6.283-6.698 8.842-10.924 8.842-4.223 0-6.458-2.559-10.916-8.841-2.476-3.489-5.359-7.534-9.396-10.574l48.439-126.292c1.447-3.774 4.885-4.081 5.926-4.084.005 0 .009.001.014.001s.009-.001.014-.001c1.042.002 4.479.31 5.926 4.084l48.438 126.292c-4.037 3.04-6.92 7.085-9.396 10.574-4.459 6.282-6.695 8.841-10.918 8.841-4.227 0-6.464-2.56-10.927-8.843-1.564-2.203-3.183-4.481-5.111-6.624-2.774-3.079-7.517-3.325-10.593-.554-3.077 2.772-3.325 7.515-.554 10.593 1.349 1.497 2.65 3.329 4.028 5.271 4.543 6.396 10.764 15.157 23.156 15.157 12.391 0 18.609-8.762 23.149-15.159 1.032-1.454 2.014-2.833 2.996-4.054l65.146 169.852h-191.589z"/></g></svg>