<svg width="123" height="123" viewBox="0 0 123 123" fill="none" xmlns="http://www.w3.org/2000/svg">
<path d="M17.9767 35.1691L28.9461 46.1385C37.2774 37.8071 48.7868 32.6541 61.5 32.6541V17.1412C44.5032 17.1412 29.1155 24.0306 17.9767 35.1691Z" fill="#F6E266"/>
<path d="M105.023 35.1691L94.0537 46.1385C85.7223 37.8071 74.213 32.6541 61.4998 32.6541V17.1412C78.4968 17.1412 93.8846 24.0306 105.023 35.1691Z" fill="#FFAA00"/>
<path d="M105.019 35.173L94.0539 46.1382C101.864 53.9487 106.882 64.5527 107.478 76.3229C107.545 77.6466 108.624 78.6921 109.95 78.6921H120.521C121.93 78.6921 123.056 77.5179 122.998 76.1101C122.338 60.1408 115.591 45.7447 105.019 35.173Z" fill="#7AD4AC"/>
<path d="M110.419 41.3465C110.591 42.834 110.684 44.3393 110.684 45.8615C110.684 52.7783 108.864 59.3672 105.574 65.3589C106.632 68.8586 107.286 72.5333 107.478 76.3299C107.545 77.6514 108.627 78.6924 109.951 78.6924H120.521C121.929 78.6924 123.056 77.5186 122.998 76.1111C122.459 63.0623 117.852 51.0664 110.419 41.3465Z" fill="#00B361"/>
<path d="M17.9808 35.173L28.9461 46.1382C21.1356 53.9487 16.1183 64.5527 15.5218 76.3229C15.4548 77.6466 14.3759 78.6921 13.0505 78.6921H2.47897C1.07 78.6921 -0.0559824 77.5179 0.00215428 76.1101C0.661598 60.1408 7.40906 45.7447 17.9808 35.173Z" fill="#FF6B5A"/>
<path d="M110.685 31.3655C110.209 31.3655 109.734 31.1841 109.371 30.8216C96.5843 18.0344 79.5834 10.9922 61.5 10.9922C60.474 10.9922 59.6423 10.1605 59.6423 9.13443C59.6423 8.10839 60.474 7.2767 61.5 7.2767C80.5758 7.2767 98.5098 14.7052 111.998 28.1939C112.724 28.9197 112.724 30.0956 111.998 30.8214C111.636 31.1841 111.16 31.3655 110.685 31.3655Z" fill="#FF6B5A"/>
<path d="M111.998 28.1941C111.352 27.5484 110.332 27.4679 109.593 28.0051L52.6234 69.4049C52.184 69.7244 51.9063 70.2203 51.8635 70.7622C51.821 71.3037 52.0177 71.8373 52.4019 72.2214L67.971 87.7908C68.3205 88.1403 68.7938 88.3347 69.2843 88.3347C69.3329 88.3347 69.3814 88.3327 69.4301 88.3289C69.9719 88.2864 70.4677 88.0087 70.7875 87.569L112.187 30.5999C112.725 29.8607 112.644 28.8404 111.998 28.1941Z" fill="#22A8FF"/>
<path d="M61.5 78.6924C68.4093 78.6924 74.0104 73.0913 74.0104 66.1819C74.0104 59.2726 68.4093 53.6715 61.5 53.6715C54.5907 53.6715 48.9895 59.2726 48.9895 66.1819C48.9895 73.0913 54.5907 78.6924 61.5 78.6924Z" fill="#F1D0A5"/>
<path d="M67.7225 55.3305C68.776 57.1638 69.3816 59.287 69.3816 61.5531C69.3816 68.4625 63.7805 74.0635 56.8711 74.0635C54.605 74.0635 52.4818 73.4579 50.6486 72.4045C52.8073 76.1608 56.8567 78.6924 61.5 78.6924C68.4094 78.6924 74.0104 73.0913 74.0104 66.1819C74.0102 61.5387 71.4786 57.4893 67.7225 55.3305Z" fill="#F1B986"/>
<path d="M40.4826 88.7005V97.2327C40.4826 98.6006 41.5915 99.7095 42.9594 99.7095H80.0406C81.4085 99.7095 82.5174 98.6006 82.5174 97.2327V88.7005C82.5174 83.1732 78.0365 78.6921 72.509 78.6921H50.4908C44.9635 78.6924 40.4826 83.1732 40.4826 88.7005Z" fill="#E5F4FF"/>
<path d="M72.509 78.6924H66.5041C72.0316 78.6924 76.5125 83.1732 76.5125 88.7008V99.71H80.0405C81.4084 99.71 82.5174 98.6011 82.5174 97.2332V88.701C82.5174 83.1732 78.0365 78.6924 72.509 78.6924Z" fill="#80B4FB"/>
<path d="M80.0403 115.723H42.9594C41.5915 115.723 40.4826 114.614 40.4826 113.246V110.193C40.4826 108.825 41.5915 107.717 42.9594 107.717H80.0406C81.4085 107.717 82.5174 108.825 82.5174 110.193V113.246C82.5174 114.614 81.4085 115.723 80.0403 115.723Z" fill="#22A8FF"/>
<path d="M52.8489 99.7097V94.7054C52.8489 93.6794 52.0172 92.8477 50.9912 92.8477C49.9651 92.8477 49.1335 93.6794 49.1335 94.7054V99.7097H52.8489Z" fill="#80B4FB"/>
<path d="M73.8663 94.7054C73.8663 93.6794 73.0346 92.8477 72.0086 92.8477C70.9825 92.8477 70.1508 93.6794 70.1508 94.7054V99.7097H73.8663V94.7054Z" fill="#80B4FB"/>
<path d="M121.142 88.3346H109.336C108.31 88.3346 107.478 87.503 107.478 86.4769C107.478 85.4509 108.31 84.6192 109.336 84.6192H121.142C122.168 84.6192 123 85.4509 123 86.4769C123 87.503 122.168 88.3346 121.142 88.3346Z" fill="#22A8FF"/>
<path d="M118.047 96.3414H112.542C111.516 96.3414 110.685 95.5097 110.685 94.4837C110.685 93.4577 111.516 92.626 112.542 92.626H118.047C119.073 92.626 119.905 93.4577 119.905 94.4837C119.905 95.5097 119.073 96.3414 118.047 96.3414Z" fill="#22A8FF"/>
<path d="M1.85773 88.3346H13.6641C14.6901 88.3346 15.5218 87.503 15.5218 86.4769C15.5218 85.4509 14.6901 84.6192 13.6641 84.6192H1.85773C0.831691 84.6192 0 85.4509 0 86.4769C0 87.5032 0.831691 88.3346 1.85773 88.3346Z" fill="#22A8FF"/>
<path d="M4.95316 96.3414H10.4577C11.4837 96.3414 12.3154 95.5097 12.3154 94.4837C12.3154 93.4577 11.4837 92.626 10.4577 92.626H4.95316C3.92712 92.626 3.09543 93.4577 3.09543 94.4837C3.09543 95.5097 3.92712 96.3414 4.95316 96.3414Z" fill="#22A8FF"/>
</svg>
