<svg width="123" height="123" viewBox="0 0 123 123" fill="none" xmlns="http://www.w3.org/2000/svg">
<path d="M25.5285 39.1983H7.63824V18.0176C7.63824 17.0225 8.44495 16.2158 9.44 16.2158H23.7267C24.7218 16.2158 25.5285 17.0225 25.5285 18.0176V39.1983Z" fill="#FFCF5D"/>
<path d="M50.6258 39.1983H32.7355V18.0176C32.7355 17.0225 33.5422 16.2158 34.5373 16.2158H48.824C49.8191 16.2158 50.6258 17.0225 50.6258 18.0176V39.1983Z" fill="#FFCF5D"/>
<path d="M75.7231 39.1983H57.8328V18.0176C57.8328 17.0225 58.6395 16.2158 59.6346 16.2158H73.9213C74.9164 16.2158 75.7231 17.0225 75.7231 18.0176V39.1983Z" fill="#FFCF5D"/>
<path d="M23.7267 16.2158H18.3215V31.9913H7.63824V39.1983H25.5285V18.0176C25.5285 17.0225 24.7218 16.2158 23.7267 16.2158Z" fill="#FFB545"/>
<path d="M48.824 16.2158H43.4188V31.9913H32.7355V39.1983H50.6258V18.0176C50.6258 17.0225 49.8191 16.2158 48.824 16.2158Z" fill="#FFB545"/>
<path d="M73.9213 16.2158H68.516V31.9913H57.8328V39.1983H75.7231V18.0176C75.7231 17.0225 74.9164 16.2158 73.9213 16.2158Z" fill="#FFB545"/>
<path d="M92.8398 23.4229V18.0176C92.8398 17.0225 92.0331 16.2158 91.038 16.2158H87.4345C86.4395 16.2158 85.6328 17.0225 85.6328 18.0176V23.4229C84.1402 23.4229 82.9301 24.6329 82.9301 26.1255V39.1983H95.5424V26.1255C95.5424 24.6327 94.3324 23.4229 92.8398 23.4229Z" fill="#00B361"/>
<path d="M112.659 23.4229V18.0176C112.659 17.0225 111.852 16.2158 110.857 16.2158H107.254C106.259 16.2158 105.452 17.0225 105.452 18.0176V23.4229C103.96 23.4229 102.749 24.6329 102.749 26.1255V39.1983H115.362V26.1255C115.362 24.6327 114.152 23.4229 112.659 23.4229Z" fill="#00B361"/>
<path d="M57.8967 53.6121H47.2135C45.2234 53.6121 43.61 55.2256 43.61 57.2157C43.61 55.2256 41.9966 53.6121 40.0065 53.6121H29.3232C27.3331 53.6121 25.7197 55.2256 25.7197 57.2157C25.7197 55.2256 24.1063 53.6121 22.1162 53.6121H11.433C9.44288 53.6121 7.82947 55.2256 7.82947 57.2157V76.5947H61.5002V57.2157C61.5002 55.2256 59.8868 53.6121 57.8967 53.6121Z" fill="#5C87BD"/>
<path d="M57.8967 53.6121H54.2932V69.3876H43.61V57.2157C43.61 55.2256 41.9966 53.6121 40.0065 53.6121H36.4029V69.3876H25.7197V57.2157C25.7197 55.2256 24.1063 53.6121 22.1162 53.6121H18.5127V69.3876H7.82947V76.5947H61.5002V57.2157C61.5002 55.2256 59.8868 53.6121 57.8967 53.6121Z" fill="#456EA2"/>
<path d="M111.567 58.4173H103.286C101.296 58.4173 99.6828 60.0307 99.6828 62.0208C99.6828 60.0307 98.0694 58.4173 96.0793 58.4173H87.7985C85.8084 58.4173 84.1949 60.0307 84.1949 62.0208C84.1949 60.0307 82.5815 58.4173 80.5914 58.4173H72.3108C70.3207 58.4173 68.7073 60.0307 68.7073 62.0208V76.5949H115.171V62.0208C115.171 60.0305 113.557 58.4173 111.567 58.4173Z" fill="#FFF9EB"/>
<path d="M111.567 58.4173H107.963V69.3879H99.6828V62.0208C99.6828 60.0307 98.0694 58.4173 96.0793 58.4173H92.4758V69.3879H84.1949V62.0208C84.1949 60.0307 82.5815 58.4173 80.5914 58.4173H76.9879V69.3879H68.7073V76.5949H115.171V62.0208C115.171 60.0305 113.557 58.4173 111.567 58.4173Z" fill="#D3CDBF"/>
<path d="M84.1949 98.8966V94.6125C84.1949 92.6224 82.5815 91.0089 80.5914 91.0089H68.707C66.7169 91.0089 65.1035 92.6224 65.1035 94.6125C65.1035 92.6224 63.4901 91.0089 61.5 91.0089H49.6156C47.6255 91.0089 46.0121 92.6224 46.0121 94.6125C46.0121 92.6224 44.3987 91.0089 42.4086 91.0089H30.5242C28.5341 91.0089 26.9207 92.6224 26.9207 94.6125C26.9207 92.6224 25.3072 91.0089 23.3171 91.0089H11.4327C9.44264 91.0089 7.82922 92.6224 7.82922 94.6125V98.8966C7.82922 100.887 9.44264 102.5 11.4327 102.5C9.44264 102.5 7.82922 104.113 7.82922 106.104V113.991H26.9207H46.0121H65.1035H84.1949V106.104C84.1949 104.113 82.5815 102.5 80.5914 102.5C82.5818 102.5 84.1949 100.887 84.1949 98.8966Z" fill="#ECECF2"/>
<path d="M84.1949 100.698V94.6125C84.1949 92.6224 82.5815 91.0089 80.5914 91.0089H76.9879V95.293H65.1035V94.6125C65.1035 92.6224 63.4901 91.0089 61.5 91.0089H57.8965V95.293H46.0121V94.6125C46.0121 92.6224 44.3987 91.0089 42.4086 91.0089H38.805V95.293H26.9207V94.6125C26.9207 92.6224 25.3072 91.0089 23.3171 91.0089H19.7136V95.293H7.82922V98.8966C7.82922 100.887 9.44264 102.5 11.4327 102.5H19.7136V106.784H7.82922V113.991H84.1949V106.104C84.1949 104.113 82.5815 102.5 80.5914 102.5H82.3932C83.3882 102.5 84.1949 101.693 84.1949 100.698ZM38.805 106.784H26.9207V102.5H38.805V106.784ZM57.8965 106.784H46.0121V102.5H57.8965V106.784ZM76.9879 106.784H65.1035V102.5H76.9879V106.784Z" fill="#76788E"/>
<path d="M106.353 98.2157V92.8105C106.353 91.8154 105.546 91.0087 104.551 91.0087H100.948C99.9526 91.0087 99.1459 91.8154 99.1459 92.8105V98.2157C97.6534 98.2157 96.4433 99.4258 96.4433 100.918V113.991H109.056V100.918C109.056 99.4258 107.846 98.2157 106.353 98.2157Z" fill="#00B361"/>
<path d="M119.396 1.80176H3.60352C2.60846 1.80176 1.80176 2.60846 1.80176 3.60352V7.20703C1.80176 8.20208 2.60846 9.00879 3.60352 9.00879H119.396C120.392 9.00879 121.198 8.20208 121.198 7.20703V3.60352C121.198 2.60846 120.392 1.80176 119.396 1.80176Z" fill="#22A8FF"/>
<path d="M119.396 113.991H3.60352C2.60846 113.991 1.80176 114.798 1.80176 115.793V119.396C1.80176 120.392 2.60846 121.198 3.60352 121.198H119.396C120.392 121.198 121.198 120.392 121.198 119.396V115.793C121.198 114.798 120.392 113.991 119.396 113.991Z" fill="#22A8FF"/>
<path d="M119.396 39.1983H3.60352C2.60846 39.1983 1.80176 40.005 1.80176 41.0001V44.6036C1.80176 45.5986 2.60846 46.4053 3.60352 46.4053H119.396C120.392 46.4053 121.198 45.5986 121.198 44.6036V41.0001C121.198 40.005 120.392 39.1983 119.396 39.1983Z" fill="#22A8FF"/>
<path d="M119.396 76.5947H3.60352C2.60846 76.5947 1.80176 77.4014 1.80176 78.3964V81.9999C1.80176 82.995 2.60846 83.8017 3.60352 83.8017H119.396C120.392 83.8017 121.198 82.995 121.198 81.9999V78.3964C121.198 77.4014 120.392 76.5947 119.396 76.5947Z" fill="#22A8FF"/>
</svg>
