<?xml version="1.0" standalone="no"?>
<!DOCTYPE svg PUBLIC "-//W3C//DTD SVG 20010904//EN"
 "http://www.w3.org/TR/2001/REC-SVG-20010904/DTD/svg10.dtd">
<svg version="1.0" xmlns="http://www.w3.org/2000/svg"
 width="1024.000000pt" height="222.000000pt" viewBox="0 0 1024.000000 222.000000"
 preserveAspectRatio="xMidYMid meet">

<g transform="translate(0.000000,222.000000) scale(0.100000,-0.100000)"
fill="#000000" stroke="none">
<path d="M3070 2045 c-303 -61 -458 -265 -411 -541 31 -176 138 -290 331 -348
30 -10 142 -34 248 -56 223 -44 269 -65 310 -140 19 -37 23 -55 19 -98 -3 -29
-14 -67 -24 -85 -47 -79 -186 -121 -331 -99 -96 15 -158 46 -199 100 -30 39
-39 62 -57 145 l-6 27 -165 0 -165 0 6 -47 c32 -255 158 -405 399 -475 71 -20
101 -23 270 -23 187 0 191 1 275 31 197 70 300 187 331 372 26 155 -21 313
-120 405 -99 91 -203 131 -490 187 -248 49 -306 89 -306 215 1 75 20 107 89
143 48 25 59 27 181 27 117 0 135 -2 178 -24 58 -28 102 -84 123 -158 8 -29
21 -53 27 -53 34 0 283 34 290 40 13 11 -21 136 -55 207 -59 122 -198 217
-362 248 -95 18 -296 18 -386 0z"/>
<path d="M4640 1611 c-78 -25 -97 -37 -167 -104 l-63 -60 0 76 0 77 -145 0
-145 0 0 -800 0 -800 150 0 150 0 0 276 0 276 50 -45 c95 -85 218 -120 355
-100 193 28 328 153 395 368 33 106 39 317 12 446 -46 220 -152 349 -325 395
-72 19 -200 17 -267 -5z m124 -243 c55 -17 109 -73 137 -144 21 -53 24 -75 24
-209 0 -144 -1 -153 -28 -210 -15 -33 -42 -75 -59 -92 -87 -90 -277 -79 -352
20 -51 66 -60 109 -60 282 -1 147 1 164 22 210 58 126 183 183 316 143z"/>
<path d="M5823 1619 c-125 -21 -223 -78 -281 -163 -31 -47 -69 -152 -58 -163
3 -3 47 -9 98 -14 51 -5 112 -11 134 -13 37 -5 43 -3 48 18 34 134 292 160
373 37 18 -27 23 -48 23 -102 l0 -69 -89 0 c-195 0 -405 -44 -502 -105 -59
-38 -118 -112 -135 -173 -22 -75 -15 -210 13 -274 29 -65 101 -132 171 -160
48 -19 76 -22 182 -23 122 0 127 1 192 33 37 18 92 56 123 84 l55 50 0 -71 0
-71 145 0 145 0 0 383 c0 399 -6 479 -40 571 -43 113 -156 200 -294 225 -69
13 -227 13 -303 0z m337 -721 c0 -75 -15 -118 -55 -165 -48 -56 -112 -84 -205
-90 -59 -3 -82 -1 -110 14 -78 40 -91 156 -25 219 50 47 147 70 308 73 l87 1
0 -52z"/>
<path d="M7082 1610 c-150 -40 -261 -129 -326 -261 -57 -118 -71 -184 -70
-344 2 -160 22 -255 75 -355 89 -168 284 -261 519 -247 199 12 321 79 404 219
29 50 71 201 62 224 -5 12 -31 14 -153 12 l-147 -3 -17 -59 c-29 -95 -92 -146
-182 -146 -79 0 -109 11 -157 59 -68 68 -85 129 -85 306 0 166 15 228 72 294
46 54 85 71 165 71 98 0 159 -50 174 -143 4 -20 11 -40 15 -43 11 -7 274 27
291 37 17 11 -3 103 -37 171 -47 94 -118 155 -230 198 -87 33 -271 38 -373 10z"/>
<path d="M8390 1624 c-172 -33 -310 -134 -384 -282 -53 -106 -69 -184 -69
-337 1 -325 133 -522 393 -586 83 -21 300 -18 375 5 91 27 146 59 197 114 52
56 79 102 102 181 25 86 34 81 -129 81 l-145 0 -16 -40 c-36 -90 -137 -134
-261 -113 -89 16 -135 50 -173 127 -16 34 -32 85 -36 113 l-7 53 399 2 399 3
3 50 c5 74 -15 232 -38 307 -43 141 -154 256 -288 299 -66 21 -259 35 -322 23z
m197 -235 c65 -17 117 -70 138 -141 9 -32 15 -68 13 -80 l-3 -23 -245 0 -245
0 3 35 c5 52 49 137 86 165 67 51 159 67 253 44z"/>
<path d="M9551 1615 c-141 -31 -258 -113 -304 -213 -32 -68 -31 -207 1 -277
57 -124 149 -170 440 -224 89 -16 171 -35 184 -42 40 -20 58 -51 58 -102 0
-83 -57 -117 -196 -117 -133 0 -221 48 -239 129 l-7 31 -145 0 -146 0 6 -51
c19 -154 139 -277 318 -326 91 -24 338 -24 429 1 212 58 317 215 281 421 -15
84 -39 132 -86 173 -77 68 -157 96 -399 138 -174 31 -206 45 -225 100 -13 38
-13 44 5 75 27 46 87 68 190 68 45 1 96 -4 115 -10 45 -15 96 -65 110 -107
l11 -34 57 6 c31 3 91 11 135 17 l78 12 -5 33 c-3 18 -18 61 -33 94 -47 105
-145 174 -291 205 -85 18 -257 18 -342 0z"/>
</g>
</svg>
