<?xml version="1.0" standalone="no"?>
<!DOCTYPE svg PUBLIC "-//W3C//DTD SVG 20010904//EN"
 "http://www.w3.org/TR/2001/REC-SVG-20010904/DTD/svg10.dtd">
<svg version="1.0" xmlns="http://www.w3.org/2000/svg"
 width="243.000000pt" height="463.000000pt" viewBox="0 0 243.000000 463.000000"
 preserveAspectRatio="xMidYMid meet">

<g transform="translate(0.000000,463.000000) scale(0.100000,-0.100000)"
fill="#000000" stroke="none">
<path d="M288 4571 c-43 -9 -99 -44 -146 -92 -32 -33 -53 -70 -74 -134 -6 -20
-9 -732 -9 -2043 2 -2156 -1 -2040 47 -2133 22 -43 99 -104 160 -127 56 -22
59 -22 969 -22 910 0 913 0 969 22 76 28 143 89 175 158 l26 55 5 1520 c3 836
3 1759 0 2050 -6 517 -6 531 -27 575 -26 55 -82 112 -143 148 l-45 27 -935 1
c-514 1 -952 -1 -972 -5z m1810 -9 c13 -4 -370 -7 -851 -7 -481 0 -870 3 -864
7 15 9 1683 9 1715 0z m220 -258 l23 -6 -1 -1994 c-1 -1948 -2 -1994 -20
-2004 -13 -7 -380 -9 -1095 -8 -943 3 -1077 5 -1085 18 -6 9 -10 767 -10 2002
0 1884 1 1987 18 1991 26 7 2144 8 2170 1z m-650 -4261 c-234 -2 -621 -2 -860
0 -238 1 -46 2 427 2 473 0 668 -1 433 -2z"/>
</g>
</svg>
