<?xml version="1.0" standalone="no"?>
<!DOCTYPE svg PUBLIC "-//W3C//DTD SVG 20010904//EN"
 "http://www.w3.org/TR/2001/REC-SVG-20010904/DTD/svg10.dtd">
<svg version="1.0" xmlns="http://www.w3.org/2000/svg"
 width="720.000000pt" height="1516.000000pt" viewBox="0 0 720.000000 1516.000000"
 preserveAspectRatio="xMidYMid meet">

<g transform="translate(0.000000,1516.000000) scale(0.100000,-0.100000)"
fill="#000000" stroke="none">
<path d="M5235 15047 c-54 -18 -85 -36 -85 -48 0 -12 160 -209 170 -209 10 0
170 197 170 209 0 5 -21 19 -46 31 -55 27 -154 35 -209 17z"/>
<path d="M6060 15050 c0 -5 -13 -10 -30 -10 l-30 0 0 -130 0 -130 90 0 90 0 0
130 0 130 -30 0 c-16 0 -30 5 -30 10 0 6 -13 10 -30 10 -16 0 -30 -4 -30 -10z"/>
<path d="M5680 14915 l-135 -135 138 0 137 0 0 135 c0 74 -1 135 -3 135 -1 0
-63 -61 -137 -135z"/>
<path d="M6388 15003 c-43 -17 -52 -39 -13 -29 l25 6 0 -80 c0 -64 3 -80 15
-80 12 0 15 18 15 100 0 55 -1 100 -2 99 -2 0 -20 -7 -40 -16z"/>
<path d="M6520 15000 c-11 -11 -20 -24 -20 -30 0 -17 21 -11 40 13 15 18 22
20 37 11 30 -19 26 -38 -22 -96 -25 -30 -45 -60 -45 -67 0 -7 23 -11 65 -11
37 0 65 4 65 10 0 6 -20 10 -45 10 -51 0 -55 7 -21 39 13 12 32 37 41 56 18
31 18 35 2 59 -21 32 -68 35 -97 6z"/>
<path d="M6756 15004 c-20 -20 -20 -34 -1 -34 8 0 15 4 15 9 0 17 34 22 48 7
18 -18 9 -46 -18 -53 -27 -7 -25 -21 3 -25 32 -4 37 -54 6 -63 -15 -5 -26 -2
-34 9 -15 20 -35 21 -35 1 0 -33 76 -47 104 -19 20 19 21 58 1 74 -13 11 -13
14 0 27 20 20 19 46 -3 66 -23 21 -66 22 -86 1z"/>
<path d="M6916 14998 c-23 -33 -22 -140 2 -161 24 -22 65 -21 85 1 25 27 24
143 -1 165 -26 24 -68 21 -86 -5z m62 -10 c7 -7 12 -39 12 -74 0 -48 -4 -63
-16 -68 -29 -11 -44 13 -44 73 0 50 11 81 30 81 3 0 11 -5 18 -12z"/>
<path d="M6670 14955 c0 -8 7 -15 15 -15 8 0 15 7 15 15 0 8 -7 15 -15 15 -8
0 -15 -7 -15 -15z"/>
<path d="M6670 14835 c0 -8 7 -15 15 -15 8 0 15 7 15 15 0 8 -7 15 -15 15 -8
0 -15 -7 -15 -15z"/>
<path d="M548 14187 c-69 -26 -126 -67 -160 -114 -50 -70 -63 -109 -63 -193 0
-78 26 -153 71 -208 18 -22 22 -22 49 -11 17 7 39 20 49 28 18 15 19 15 12
-13 -4 -17 -15 -36 -24 -43 -16 -12 -16 -14 2 -28 24 -18 40 -20 30 -2 -4 6 4
2 17 -10 15 -13 44 -24 77 -29 48 -6 52 -5 46 12 -6 16 -5 17 7 7 18 -18 29
-16 29 5 0 17 78 102 93 102 4 0 7 -7 7 -15 0 -8 8 -15 18 -15 10 0 24 -6 31
-12 10 -11 17 -7 37 17 14 17 37 53 52 80 22 42 26 63 27 135 0 78 -3 90 -34
149 -36 65 -95 119 -161 148 -50 21 -167 27 -212 10z m220 -131 c7 -16 6 -31
-4 -54 -12 -29 -11 -33 9 -47 21 -14 20 -15 -20 -15 -23 0 -53 -5 -67 -11 -20
-10 -28 -8 -47 10 -15 14 -36 21 -63 21 -30 0 -37 3 -26 10 12 8 11 10 -7 10
-27 0 -28 2 -7 41 19 38 39 32 38 -10 -1 -48 20 -31 23 19 1 23 5 45 8 49 11
11 110 17 131 8 12 -5 26 -19 32 -31z m-271 -178 c-3 -8 -6 -5 -6 6 -1 11 2
17 5 13 3 -3 4 -12 1 -19z m179 -5 c4 -16 13 -36 22 -45 13 -16 13 -18 -2 -24
-17 -7 -84 1 -93 10 -3 3 6 19 21 36 14 17 26 36 26 41 0 21 20 7 26 -18z
m-102 1 c22 -9 20 -34 -3 -34 -27 0 -51 10 -51 22 0 5 4 7 9 3 5 -3 12 -1 16
5 7 12 8 12 29 4z m199 -38 c7 -17 -16 -28 -38 -20 -12 5 -13 10 -4 20 15 18
35 18 42 0z m-187 -83 c3 3 20 1 37 -4 30 -8 30 -7 13 6 -20 15 -20 15 0 14
10 0 28 -4 39 -9 19 -8 19 -9 1 -9 -34 -2 -9 -13 28 -13 26 0 33 -3 29 -15 -3
-8 -14 -13 -24 -10 -11 3 -19 1 -19 -4 0 -14 -64 -10 -97 6 -17 9 -33 25 -36
36 -5 17 -3 18 9 8 8 -6 17 -9 20 -6z m10 -74 c4 -7 23 -9 50 -5 24 3 44 2 44
-4 0 -15 -34 -20 -67 -11 -17 5 -34 7 -36 5 -2 -3 -7 2 -10 11 -7 17 8 21 19
4z m44 -99 c0 -5 -4 -10 -10 -10 -5 0 -10 5 -10 10 0 6 5 10 10 10 6 0 10 -4
10 -10z"/>
<path d="M6755 14190 c-77 -30 -57 -143 25 -143 41 0 73 32 73 73 0 50 -53 88
-98 70z"/>
<path d="M3152 14080 c-51 -12 -82 -47 -82 -91 0 -58 31 -87 115 -107 59 -14
70 -20 73 -40 2 -13 -2 -30 -8 -38 -26 -30 -120 -6 -120 32 0 9 -11 14 -36 14
-34 0 -36 -1 -29 -27 11 -45 53 -81 101 -89 100 -15 164 25 164 103 0 51 -31
88 -83 98 -93 19 -107 25 -107 48 0 32 18 47 56 47 31 0 64 -21 64 -41 0 -10
53 -13 63 -3 10 10 -14 62 -36 77 -30 19 -94 27 -135 17z"/>
<path d="M3380 13820 l0 -170 30 0 c30 0 30 1 30 55 l0 55 34 -17 c76 -36 146
23 146 122 0 76 -31 119 -89 123 -27 2 -52 -3 -67 -13 -21 -14 -24 -14 -24 0
0 10 -10 15 -30 15 l-30 0 0 -170z m154 104 c10 -10 16 -33 16 -64 0 -41 -4
-52 -24 -65 -35 -23 -73 -6 -81 39 -7 35 0 71 17 94 14 17 53 15 72 -4z"/>
<path d="M3695 13965 c-14 -13 -25 -29 -25 -35 0 -15 52 -12 74 5 25 19 41 19
60 -1 25 -25 20 -44 -13 -44 -84 0 -131 -30 -131 -84 0 -44 30 -71 80 -71 24
0 46 8 59 19 19 17 21 17 21 3 0 -12 9 -17 30 -17 l30 0 0 90 c0 95 -14 142
-45 154 -9 3 -39 6 -66 6 -40 0 -55 -5 -74 -25z m125 -130 c0 -21 -36 -55 -58
-55 -18 0 -42 18 -42 31 0 4 7 15 16 23 20 21 84 22 84 1z"/>
<path d="M3968 13961 c-31 -28 -33 -33 -33 -100 0 -63 3 -73 27 -98 23 -23 36
-27 84 -27 49 -1 59 2 80 27 34 40 32 67 -5 67 -21 0 -32 -6 -36 -19 -7 -23
-35 -34 -58 -25 -33 12 -42 106 -14 142 15 19 55 14 67 -9 9 -16 17 -19 38
-14 36 9 36 9 18 43 -18 35 -33 42 -92 42 -34 0 -51 -6 -76 -29z"/>
<path d="M4239 13962 c-52 -46 -56 -147 -9 -197 55 -58 188 -32 190 38 0 24
-42 22 -65 -3 -10 -11 -25 -20 -34 -20 -26 0 -61 29 -61 51 0 17 7 19 85 19
84 0 85 0 85 25 0 38 -25 92 -48 104 -12 6 -41 11 -66 11 -36 0 -52 -6 -77
-28z m119 -40 c21 -27 14 -32 -43 -32 -57 0 -64 5 -42 32 23 30 60 30 85 0z"/>
<path d="M4495 13965 c-53 -52 -22 -106 70 -125 49 -10 56 -14 53 -33 -4 -31
-62 -37 -80 -8 -8 13 -23 21 -40 21 -60 0 -18 -74 49 -86 76 -14 136 19 136
76 0 39 -27 68 -72 75 -80 13 -102 36 -56 57 21 9 30 8 53 -8 30 -21 72 -21
72 1 0 29 -51 55 -107 55 -44 0 -58 -5 -78 -25z"/>
<path d="M990 9740 c0 -81 3 -100 15 -100 10 0 15 16 17 63 l3 62 28 -47 c15
-26 31 -49 36 -53 5 -3 24 19 43 47 l33 53 3 -62 c2 -47 7 -63 17 -63 12 0 15
19 15 100 0 123 -12 129 -65 35 -20 -36 -38 -65 -39 -65 -2 0 -22 29 -45 65
-22 36 -45 65 -51 65 -6 0 -10 -38 -10 -100z"/>
<path d="M1313 9828 c-8 -11 -62 -130 -80 -175 -9 -23 32 -14 42 10 8 18 19
23 57 25 43 3 49 0 60 -22 6 -15 19 -26 29 -26 15 0 11 15 -28 100 -45 97 -60
114 -80 88z m57 -110 c0 -5 -16 -8 -35 -8 -39 0 -42 7 -19 52 l17 32 18 -35
c10 -19 18 -37 19 -41z"/>
<path d="M1467 9833 c-4 -3 -7 -48 -7 -100 0 -86 2 -93 20 -93 17 0 19 8 22
65 l3 65 50 -64 c28 -36 58 -65 68 -66 16 0 17 9 15 98 -2 78 -6 97 -18 97
-11 0 -16 -16 -20 -64 l-5 -63 -53 66 c-52 65 -62 73 -75 59z"/>
<path d="M1707 9740 c-41 -90 -44 -100 -26 -100 12 0 23 10 29 25 8 22 15 25
58 25 42 0 50 -3 60 -25 10 -21 42 -36 42 -20 0 21 -92 195 -103 195 -8 0 -33
-43 -60 -100z m82 14 c15 -42 12 -46 -27 -42 l-30 3 15 38 c8 20 18 37 22 37
4 0 13 -16 20 -36z"/>
<path d="M1930 9818 c-36 -24 -53 -67 -44 -105 9 -36 60 -73 100 -73 56 0 74
15 74 60 0 51 -27 57 -32 8 -3 -29 -7 -33 -35 -36 -67 -7 -99 76 -46 118 19
15 35 20 53 15 44 -10 53 -10 57 1 4 13 -39 34 -71 34 -13 0 -38 -10 -56 -22z"/>
<path d="M2117 9834 c-4 -4 -7 -49 -7 -101 l0 -93 75 0 c60 0 75 3 75 15 0 12
-13 15 -55 15 -54 0 -55 0 -55 30 0 29 2 30 45 30 25 0 45 5 45 10 0 6 -20 10
-45 10 -43 0 -45 1 -45 30 0 30 0 30 56 30 40 0 55 3 52 13 -5 13 -129 23
-141 11z"/>
<path d="M2400 9827 c-19 -10 -25 -20 -25 -47 0 -33 3 -36 53 -54 38 -13 52
-23 50 -35 -4 -19 -58 -27 -87 -12 -14 8 -20 7 -25 -4 -14 -37 100 -49 134
-15 37 37 18 75 -45 91 -52 13 -62 24 -44 45 10 12 23 14 50 10 45 -7 62 10
24 24 -35 13 -55 12 -85 -3z"/>
<path d="M2530 9825 c0 -10 10 -15 30 -15 l30 0 0 -85 c0 -78 2 -85 20 -85 18
0 20 7 20 85 l0 85 30 0 c20 0 30 5 30 15 0 12 -16 15 -80 15 -64 0 -80 -3
-80 -15z"/>
<path d="M2754 9821 c-59 -36 -65 -112 -12 -156 65 -55 168 -15 168 67 0 50
-13 74 -50 93 -39 20 -69 19 -106 -4z m103 -37 c45 -45 15 -114 -49 -114 -62
0 -89 70 -43 115 31 32 59 32 92 -1z"/>
<path d="M2957 9833 c-4 -3 -7 -48 -7 -100 0 -86 1 -93 20 -93 16 0 20 7 20
30 0 25 4 30 25 30 16 0 32 -11 47 -30 12 -16 30 -30 40 -30 17 0 17 2 -3 29
l-21 29 22 30 c20 28 22 34 10 61 -9 22 -22 33 -49 41 -41 11 -95 13 -104 3z
m107 -36 c11 -8 17 -23 14 -38 -3 -21 -9 -24 -45 -27 l-43 -3 0 40 c0 38 2 41
28 41 16 0 36 -6 46 -13z"/>
<path d="M3160 9740 l0 -100 70 0 c56 0 70 3 70 15 0 12 -13 15 -56 15 -54 0
-55 0 -52 28 3 25 7 27 51 30 26 2 47 7 47 12 0 5 -21 10 -47 12 -44 3 -48 5
-48 28 0 23 4 25 53 28 37 2 52 7 52 18 0 11 -16 14 -70 14 l-70 0 0 -100z"/>
<path d="M1290 8255 c0 -80 17 -104 22 -32 3 37 6 42 28 42 22 0 25 -5 28 -42
4 -53 22 -57 22 -5 0 50 -12 65 -49 65 -26 0 -31 4 -31 24 0 13 -4 23 -10 23
-6 0 -10 -32 -10 -75z"/>
<path d="M3310 8305 c0 -23 -3 -26 -23 -21 -34 8 -67 -19 -67 -54 0 -35 21
-49 73 -47 l37 1 0 67 c0 37 -4 71 -10 74 -6 4 -10 -5 -10 -20z m-12 -47 c16
-16 15 -33 -4 -52 -12 -12 -20 -13 -35 -6 -18 10 -26 50 -12 63 10 11 38 8 51
-5z"/>
<path d="M3447 8323 c-4 -3 -7 -15 -7 -25 0 -11 -7 -17 -17 -16 -40 3 -54 -3
-64 -28 -16 -43 11 -75 61 -72 l40 3 0 73 c0 72 -1 78 -13 65z m-9 -85 c4 -35
-29 -56 -52 -32 -19 19 -20 36 -4 52 21 21 53 10 56 -20z"/>
<path d="M4000 8256 c0 -44 4 -76 10 -76 6 0 10 30 10 69 0 39 -4 73 -10 76
-6 4 -10 -22 -10 -69z"/>
<path d="M5470 8300 c0 -28 -2 -30 -21 -20 -28 15 -69 -11 -69 -45 0 -36 25
-55 71 -53 l39 1 0 74 c0 42 -4 73 -10 73 -5 0 -10 -14 -10 -30z m-16 -36 c21
-8 20 -51 -1 -63 -24 -13 -53 4 -53 33 0 35 17 44 54 30z"/>
<path d="M5610 8300 c0 -28 -2 -30 -21 -20 -30 17 -69 -11 -69 -49 0 -37 19
-52 64 -49 l36 3 0 73 c0 39 -2 72 -5 72 -3 0 -5 -14 -5 -30z m-10 -45 c19
-23 3 -55 -30 -55 -32 0 -45 22 -30 51 13 23 43 25 60 4z"/>
<path d="M6347 8323 c-4 -3 -7 -15 -7 -25 0 -11 -7 -17 -17 -16 -40 3 -54 -3
-64 -28 -16 -43 11 -75 61 -72 l40 3 0 73 c0 72 -1 78 -13 65z m-9 -85 c4 -35
-29 -56 -52 -32 -19 19 -20 36 -4 52 21 21 53 10 56 -20z"/>
<path d="M810 8250 c0 -78 17 -96 22 -22 l3 47 24 -40 c23 -39 23 -40 40 -19
9 12 21 30 28 40 10 16 12 12 12 -28 1 -27 6 -48 11 -48 6 0 10 30 10 70 0 39
-4 70 -9 70 -6 0 -22 -23 -37 -51 l-28 -50 -30 50 c-17 28 -34 51 -38 51 -5 0
-8 -31 -8 -70z"/>
<path d="M1170 8305 c-20 -24 -7 -49 30 -61 37 -12 51 -38 25 -47 -8 -4 -27
-2 -41 3 -20 8 -25 7 -22 -2 6 -18 66 -22 84 -7 25 20 13 51 -25 64 -19 6 -37
17 -39 24 -6 18 18 31 45 24 14 -3 23 -1 23 6 0 16 -66 13 -80 -4z"/>
<path d="M3097 8257 c-15 -34 -27 -65 -27 -69 0 -17 18 -7 23 12 4 15 14 20
41 20 25 0 38 -6 46 -20 6 -11 15 -20 20 -20 4 0 -6 32 -23 70 -17 39 -36 70
-41 70 -6 0 -23 -29 -39 -63z m58 3 l16 -30 -31 0 c-34 0 -34 -1 -20 34 12 33
16 33 35 -4z"/>
<path d="M3569 8255 c-32 -71 -33 -75 -20 -75 5 0 13 9 16 20 9 29 68 28 89
-2 9 -12 17 -20 20 -17 7 7 -56 139 -66 139 -5 0 -22 -29 -39 -65z m58 5 c11
-29 10 -30 -18 -30 -33 0 -33 0 -17 35 15 32 21 32 35 -5z"/>
<path d="M3760 8305 c-20 -24 -7 -49 30 -61 37 -12 51 -38 25 -47 -8 -4 -27
-2 -41 3 -20 8 -25 7 -22 -2 6 -18 66 -22 84 -7 25 20 13 51 -25 64 -19 6 -37
17 -39 24 -6 19 19 31 47 24 17 -4 22 -2 17 6 -10 16 -61 14 -76 -4z"/>
<path d="M5259 8255 c-32 -71 -33 -75 -20 -75 5 0 13 9 16 20 9 29 68 28 89
-2 9 -12 17 -20 20 -17 7 7 -56 139 -66 139 -5 0 -22 -29 -39 -65z m58 5 c11
-29 10 -30 -18 -30 -33 0 -33 0 -17 35 15 32 21 32 35 -5z"/>
<path d="M5730 8253 c-30 -67 -33 -95 -4 -55 21 30 80 31 89 2 5 -17 25 -29
25 -16 0 14 -64 136 -71 136 -5 0 -22 -30 -39 -67z m58 12 c16 -35 16 -35 -17
-35 -29 0 -30 1 -20 30 13 37 22 38 37 5z"/>
<path d="M5920 8250 c0 -40 4 -70 10 -70 6 0 10 9 10 20 0 14 7 20 23 20 31 0
67 27 67 50 0 30 -28 50 -71 50 l-39 0 0 -70z m85 20 c0 -21 -5 -26 -32 -28
-31 -3 -33 -1 -33 28 0 29 2 31 33 28 27 -2 32 -7 32 -28z"/>
<path d="M6649 8298 c-4 -33 4 -94 13 -105 6 -7 20 -13 32 -12 21 0 21 0 -1 9
-18 7 -23 17 -23 45 0 24 4 35 15 35 8 0 15 5 15 10 0 6 -7 10 -15 10 -8 0
-15 5 -15 10 0 15 -20 12 -21 -2z"/>
<path d="M991 8280 c0 -8 8 -33 18 -55 20 -46 18 -65 -10 -65 -10 0 -19 -5
-19 -11 0 -6 10 -9 23 -7 16 2 31 21 55 71 19 38 31 71 29 74 -3 3 -15 -14
-28 -38 l-21 -43 -24 44 c-13 25 -23 38 -23 30z"/>
<path d="M1442 8274 c-17 -12 -22 -24 -20 -46 4 -40 28 -55 65 -42 38 13 45
65 11 88 -12 9 -25 16 -28 16 -3 0 -16 -7 -28 -16z m58 -19 c19 -23 3 -55 -30
-55 -32 0 -45 22 -30 51 13 23 43 25 60 4z"/>
<path d="M1557 8284 c-11 -11 -8 -144 3 -144 6 0 10 11 10 25 0 22 3 24 28 19
57 -11 86 60 38 91 -19 13 -29 14 -45 6 -13 -8 -20 -8 -23 0 -2 6 -7 7 -11 3z
m78 -49 c0 -27 -3 -30 -30 -30 -21 0 -31 5 -33 18 -5 25 17 49 42 45 16 -2 21
-10 21 -33z"/>
<path d="M3893 8283 c-22 -8 -14 -19 14 -18 14 0 28 -6 30 -12 3 -8 -4 -13
-19 -13 -33 0 -51 -14 -46 -36 2 -15 13 -19 46 -20 l42 -2 0 44 c0 52 -26 74
-67 57z m47 -68 c0 -9 -7 -18 -16 -22 -18 -7 -39 11 -30 26 11 17 46 13 46 -4z"/>
<path d="M4077 8283 c-29 -7 -41 -51 -22 -79 16 -25 39 -30 72 -17 14 6 8 9
-21 13 -58 7 -59 30 -2 30 50 0 56 10 26 40 -21 21 -22 21 -53 13z m51 -30 c2
-9 -8 -13 -32 -13 -28 0 -34 3 -29 16 7 18 54 16 61 -3z"/>
<path d="M6061 8230 c1 -54 1 -54 9 -16 4 22 15 45 24 51 22 16 20 20 -9 20
-24 0 -25 -3 -24 -55z"/>
<path d="M6152 8274 c-34 -23 -27 -75 11 -88 33 -12 56 -1 68 33 7 17 3 28
-16 47 -28 28 -33 29 -63 8z m58 -19 c18 -22 3 -55 -25 -55 -29 0 -47 27 -34
52 12 22 42 23 59 3z"/>
<path d="M6400 8247 c0 -53 14 -67 63 -65 l37 1 0 48 c0 60 -18 74 -22 17 -3
-39 -6 -43 -30 -46 -26 -3 -28 -1 -28 37 0 22 -4 43 -10 46 -6 4 -10 -11 -10
-38z"/>
<path d="M6552 8274 c-17 -12 -22 -24 -20 -46 4 -37 26 -53 61 -44 38 9 33 23
-7 18 -38 -4 -53 16 -35 50 9 16 17 19 42 14 30 -5 31 -5 13 9 -25 19 -26 19
-54 -1z"/>
<path d="M990 7100 c0 -81 3 -100 15 -100 10 0 15 16 17 63 l3 62 28 -47 c15
-26 31 -49 36 -53 5 -3 24 19 43 47 l33 53 3 -62 c2 -47 7 -63 17 -63 12 0 15
19 15 100 0 123 -12 129 -65 35 -20 -36 -38 -65 -39 -65 -2 0 -22 29 -45 65
-22 36 -45 65 -51 65 -6 0 -10 -38 -10 -100z"/>
<path d="M1230 7193 c0 -5 16 -33 35 -63 24 -37 35 -66 35 -92 0 -31 4 -38 20
-38 16 0 20 7 20 36 0 24 12 56 35 94 39 65 41 70 21 70 -8 0 -26 -20 -40 -45
-15 -25 -30 -45 -34 -45 -4 0 -19 20 -34 45 -15 25 -34 45 -43 45 -8 0 -15 -3
-15 -7z"/>
<path d="M1565 7191 c-26 -11 -51 -40 -60 -69 -9 -32 12 -87 40 -106 30 -20
95 -21 120 -3 28 21 11 38 -25 24 -60 -23 -112 23 -97 85 9 35 58 55 94 39 30
-14 52 -1 29 18 -19 16 -76 23 -101 12z"/>
<path d="M1765 7191 c-48 -20 -72 -74 -55 -125 14 -44 48 -66 100 -66 33 0 48
6 71 29 77 78 -13 204 -116 162z m90 -46 c30 -30 31 -54 4 -89 -39 -49 -119
-24 -119 37 0 37 7 49 35 65 31 18 54 14 80 -13z"/>
<path d="M1957 7193 c-4 -3 -7 -48 -7 -100 0 -86 1 -93 20 -93 18 0 20 7 20
66 l0 67 51 -64 c74 -93 79 -91 79 30 0 82 -3 101 -15 101 -11 0 -15 -16 -17
-67 l-3 -67 -53 67 c-53 66 -62 73 -75 60z"/>
<path d="M2157 7194 c-14 -15 -6 -23 26 -26 l32 -3 3 -82 c2 -64 6 -83 17 -83
11 0 15 19 17 83 l3 82 33 3 c20 2 32 8 29 15 -4 13 -148 23 -160 11z"/>
<path d="M2364 7123 c-56 -122 -56 -123 -35 -123 10 0 23 11 29 25 10 21 18
25 57 25 39 0 47 -4 57 -25 6 -14 19 -25 29 -25 18 0 18 2 0 43 -59 134 -72
157 -86 157 -10 0 -29 -30 -51 -77z m80 -30 c7 -21 4 -23 -29 -23 -31 0 -36 3
-30 18 4 9 12 30 17 46 l11 29 12 -24 c7 -13 16 -34 19 -46z"/>
<path d="M2594 7191 c-30 -13 -64 -59 -64 -88 0 -32 26 -80 49 -93 36 -19 131
-4 131 21 0 12 -29 19 -35 9 -9 -15 -58 -12 -83 6 -45 31 -16 124 39 124 11 0
30 -5 41 -11 12 -7 24 -7 29 -2 24 24 -65 52 -107 34z"/>
<path d="M2720 7186 c0 -9 12 -16 33 -18 l32 -3 3 -82 c2 -65 6 -83 17 -83 12
0 15 17 15 85 l0 85 36 0 c24 0 34 4 32 13 -3 8 -32 13 -86 15 -67 2 -82 0
-82 -12z"/>
<path d="M2932 7188 c-53 -26 -32 -92 34 -104 39 -7 56 -24 44 -43 -6 -10 -22
-12 -59 -8 -39 5 -51 3 -51 -7 0 -28 92 -35 128 -10 47 32 19 83 -55 99 -67
14 -42 62 27 51 31 -5 40 -3 40 8 0 25 -67 33 -108 14z"/>
<path d="M3450 5660 c-12 -16 -17 -30 -11 -30 6 0 11 -20 11 -45 0 -25 5 -45
10 -45 6 0 10 20 10 45 0 33 4 45 15 45 8 0 15 5 15 10 0 6 -7 10 -15 10 -8 0
-15 5 -15 10 0 6 7 10 15 10 8 0 15 5 15 10 0 21 -29 9 -50 -20z"/>
<path d="M3920 5615 c0 -43 4 -75 10 -75 6 0 10 32 10 75 0 43 -4 75 -10 75
-6 0 -10 -32 -10 -75z"/>
<path d="M717 5660 c-63 -50 1 -143 77 -114 28 11 17 19 -25 19 -51 0 -68 20
-53 62 8 25 15 28 52 28 47 0 52 18 6 23 -19 2 -40 -5 -57 -18z"/>
<path d="M3180 5611 c0 -41 4 -71 10 -71 6 0 10 9 10 20 0 28 44 27 64 -2 9
-12 19 -19 22 -15 4 4 2 13 -5 20 -8 11 -8 21 4 43 22 43 2 68 -59 72 l-46 3
0 -70z m94 33 c9 -24 -12 -44 -45 -44 -26 0 -29 4 -29 30 0 27 3 30 34 30 22
0 36 -6 40 -16z"/>
<path d="M1071 5654 c-9 -11 -10 -18 -3 -23 6 -3 12 -24 14 -46 2 -33 7 -41
26 -43 12 -2 22 1 22 7 0 6 -6 10 -12 9 -8 -2 -14 11 -16 35 -3 30 0 37 14 37
16 0 15 2 -4 20 -25 24 -23 23 -41 4z"/>
<path d="M840 5607 c0 -53 14 -67 63 -65 l37 1 0 48 c0 60 -18 74 -22 17 -3
-39 -6 -43 -30 -46 -26 -3 -28 -1 -28 37 0 22 -4 43 -10 46 -6 4 -10 -11 -10
-38z"/>
<path d="M988 5639 c-27 -15 -21 -39 12 -50 49 -18 38 -34 -19 -29 -14 1 -21
-2 -17 -9 8 -12 45 -15 70 -5 28 11 19 43 -14 51 -40 11 -42 27 -5 33 25 5 27
7 12 13 -22 8 -18 9 -39 -4z"/>
<path d="M1172 5634 c-17 -12 -22 -24 -20 -46 4 -40 28 -55 65 -42 38 13 45
65 11 88 -12 9 -25 16 -28 16 -3 0 -16 -7 -28 -16z m58 -19 c19 -23 3 -55 -30
-55 -32 0 -45 22 -30 51 13 23 43 25 60 4z"/>
<path d="M1287 5644 c-11 -11 -8 -104 3 -104 6 0 10 15 10 33 0 41 12 60 36
55 14 -2 20 -13 22 -46 4 -54 20 -54 24 1 3 37 6 42 28 42 22 0 25 -5 28 -42
4 -54 22 -56 22 -3 0 47 -35 79 -67 62 -12 -7 -25 -7 -36 -1 -11 6 -24 6 -36
0 -13 -8 -20 -8 -23 0 -2 6 -7 7 -11 3z"/>
<path d="M1514 5640 c-46 -18 -31 -92 20 -98 16 -2 33 1 39 7 8 8 0 11 -26 11
-26 0 -37 4 -37 15 0 11 11 15 40 15 45 0 50 10 20 40 -22 22 -25 23 -56 10z
m54 -27 c2 -9 -8 -13 -33 -13 -33 0 -36 2 -25 15 15 18 51 16 58 -2z"/>
<path d="M1621 5590 c1 -54 1 -54 9 -16 4 22 15 45 24 51 22 16 20 20 -9 20
-24 0 -25 -3 -24 -55z"/>
<path d="M1708 5639 c-27 -15 -21 -39 12 -51 37 -12 34 -34 -4 -30 -18 2 -25
-1 -21 -7 3 -6 15 -11 25 -11 56 0 72 46 20 57 -41 8 -39 33 3 34 27 0 29 2
12 9 -26 11 -27 11 -47 -1z"/>
<path d="M3342 5634 c-28 -20 -30 -69 -3 -84 25 -13 58 -13 67 1 3 6 -1 10
-12 9 -38 -4 -54 0 -54 15 0 11 11 15 40 15 28 0 40 4 40 14 0 13 -36 46 -50
46 -3 0 -16 -7 -28 -16z m56 -21 c2 -9 -7 -13 -27 -13 -30 0 -39 9 -24 24 11
10 46 3 51 -11z"/>
<path d="M3532 5634 c-43 -30 -17 -98 36 -92 37 4 38 23 0 23 -17 0 -33 6 -35
13 -3 8 8 12 36 12 29 0 41 4 41 14 0 13 -36 46 -50 46 -3 0 -16 -7 -28 -16z
m56 -21 c2 -9 -7 -13 -27 -13 -30 0 -39 9 -24 24 11 10 46 3 51 -11z"/>
<path d="M3640 5593 c0 -29 5 -53 10 -53 6 0 10 18 10 40 0 33 4 42 23 50 25
10 24 11 -15 14 -27 2 -28 0 -28 -51z"/>
<path d="M3720 5596 c0 -31 5 -56 10 -56 6 0 10 18 10 40 0 33 4 43 23 50 19
9 19 10 2 8 -11 -2 -26 1 -32 5 -10 6 -13 -5 -13 -47z"/>
<path d="M3818 5643 c-29 -7 -20 -20 11 -15 19 3 30 -1 34 -12 5 -12 0 -16
-22 -16 -16 0 -34 -7 -41 -15 -19 -23 5 -45 46 -42 33 2 34 3 34 44 0 32 -5
45 -19 53 -11 5 -21 9 -23 9 -2 -1 -11 -3 -20 -6z m45 -68 c-1 -5 -8 -14 -17
-20 -18 -11 -42 7 -31 25 8 13 51 9 48 -5z"/>
<path d="M3988 5639 c-27 -15 -21 -39 12 -51 37 -12 34 -34 -4 -30 -14 1 -26
-2 -26 -8 0 -11 39 -14 64 -4 28 11 19 43 -14 51 -40 11 -39 26 2 34 18 4 28
7 21 8 -6 0 -17 3 -25 6 -7 2 -21 0 -30 -6z"/>
<path d="M990 4460 l0 -100 65 0 c51 0 65 3 65 15 0 11 -12 15 -50 15 l-50 0
0 85 c0 69 -3 85 -15 85 -12 0 -15 -18 -15 -100z"/>
<path d="M1157 4554 c-4 -4 -7 -49 -7 -101 l0 -93 75 0 c60 0 75 3 75 15 0 12
-13 15 -55 15 -54 0 -55 0 -55 30 0 29 2 30 45 30 25 0 45 5 45 10 0 6 -20 10
-45 10 -43 0 -45 1 -45 30 0 30 0 30 56 30 40 0 55 3 52 13 -5 13 -129 23
-141 11z"/>
<path d="M1361 4466 c-22 -52 -41 -97 -41 -100 0 -17 32 -3 42 19 10 21 18 25
58 25 40 0 48 -4 58 -25 10 -21 42 -36 42 -20 0 9 -73 171 -82 183 -21 25 -36
9 -77 -82z m78 13 c16 -46 14 -49 -19 -49 -16 0 -30 4 -30 9 0 18 22 71 30 71
4 0 13 -14 19 -31z"/>
<path d="M1558 4554 c-5 -4 -8 -49 -8 -101 0 -86 1 -93 20 -93 16 0 20 7 20
30 0 25 4 30 24 30 16 0 32 -11 46 -30 12 -16 28 -30 36 -30 18 0 18 5 -2 36
-15 23 -15 26 0 43 22 24 20 74 -3 95 -20 18 -121 34 -133 20z m107 -37 c13
-10 16 -21 11 -40 -6 -24 -11 -27 -46 -27 -40 0 -40 0 -40 40 0 37 2 40 28 40
16 0 36 -6 47 -13z"/>
<path d="M1760 4460 c0 -81 3 -100 15 -100 10 0 15 16 17 66 l3 66 53 -66 c74
-93 82 -89 82 35 0 90 -2 100 -17 97 -15 -3 -19 -16 -21 -66 l-3 -62 -55 65
c-30 36 -59 65 -65 65 -5 0 -9 -44 -9 -100z"/>
<path d="M1987 4554 c-4 -4 -7 -49 -7 -101 0 -87 1 -93 20 -93 20 0 21 5 18
97 -3 89 -12 116 -31 97z"/>
<path d="M2077 4553 c-4 -3 -7 -48 -7 -100 0 -86 1 -93 20 -93 18 0 20 7 20
66 l0 66 53 -66 c28 -36 60 -65 70 -66 16 0 17 9 15 97 -3 83 -6 98 -20 101
-14 3 -18 -7 -20 -65 l-3 -67 -53 67 c-53 66 -62 73 -75 60z"/>
<path d="M2338 4545 c-35 -20 -48 -44 -48 -90 0 -73 81 -117 155 -83 20 9 25
18 25 50 0 31 -3 38 -20 38 -16 0 -20 -7 -20 -35 0 -33 -2 -35 -35 -35 -69 0
-98 68 -50 115 27 28 41 30 81 15 32 -13 52 1 30 19 -24 20 -88 23 -118 6z"/>
<path d="M2619 4541 c-21 -17 -22 -21 -11 -46 11 -24 10 -29 -8 -42 -25 -18
-26 -55 -2 -76 20 -18 78 -22 102 -7 9 5 19 5 26 -1 16 -13 29 8 15 24 -6 8
-6 18 -1 27 6 8 10 18 10 23 0 12 -28 8 -33 -5 -3 -9 -10 -8 -26 6 l-21 19 20
19 c24 23 25 41 4 62 -21 21 -47 20 -75 -3z m61 -25 c0 -24 -26 -38 -40 -22
-6 9 -9 20 -5 26 9 15 45 12 45 -4z m-13 -88 c32 -30 29 -38 -12 -38 -39 0
-55 21 -35 45 16 20 19 19 47 -7z"/>
<path d="M2847 4554 c-14 -15 -6 -23 26 -26 l32 -3 3 -82 c2 -64 6 -83 17 -83
11 0 15 19 17 83 l3 82 33 3 c20 2 32 8 29 15 -4 13 -148 23 -160 11z"/>
<path d="M3040 4461 c0 -83 3 -101 15 -101 10 0 15 10 15 30 0 26 4 30 28 30
19 0 33 -9 47 -30 11 -16 28 -30 38 -30 17 0 17 2 -3 30 l-21 29 21 21 c25 25
26 61 3 89 -13 16 -34 23 -80 27 l-63 7 0 -102z m104 56 c11 -8 17 -23 14 -38
-3 -21 -9 -24 -45 -27 -43 -3 -43 -3 -43 31 0 18 3 37 7 40 11 11 48 8 67 -6z"/>
<path d="M3247 4554 c-4 -4 -7 -49 -7 -101 0 -87 1 -93 20 -93 20 0 21 5 18
97 -3 89 -12 116 -31 97z"/>
<path d="M3314 4537 c14 -56 76 -177 91 -177 10 0 29 28 50 75 44 97 52 125
33 125 -8 0 -29 -33 -48 -77 l-34 -77 -35 77 c-20 45 -40 77 -49 77 -10 0 -12
-7 -8 -23z"/>
<path d="M3530 4460 c0 -82 3 -100 15 -100 12 0 15 18 15 100 0 82 -3 100 -15
100 -12 0 -15 -18 -15 -100z"/>
<path d="M3661 4518 c-10 -24 -30 -69 -44 -100 -24 -53 -24 -58 -8 -58 10 0
23 11 29 26 11 22 17 25 60 22 38 -2 49 -7 57 -25 5 -13 18 -23 27 -23 10 0
18 2 18 4 0 2 -20 47 -45 100 -28 62 -50 96 -60 96 -9 0 -24 -18 -34 -42z m54
-38 c22 -42 19 -50 -20 -50 -19 0 -35 2 -35 5 0 7 33 75 37 75 1 0 9 -13 18
-30z"/>
<path d="M3526 3672 l-79 -38 83 -38 c46 -22 88 -39 94 -39 6 0 47 17 91 38
l80 37 -75 38 c-41 22 -84 39 -95 40 -12 0 -56 -17 -99 -38z m112 1 c-4 -20
-18 -26 -37 -14 -18 12 -5 31 20 31 14 0 19 -6 17 -17z m-70 -36 c2 -11 -3
-17 -17 -17 -23 0 -35 15 -26 31 10 15 39 6 43 -14z m136 17 c25 -10 19 -34
-9 -34 -24 0 -34 18 -18 33 8 8 8 8 27 1z m-56 -51 c-2 -10 -12 -18 -23 -18
-11 0 -21 8 -23 18 -3 13 3 17 23 17 20 0 26 -4 23 -17z"/>
<path d="M1140 3200 c0 -5 7 -10 16 -10 8 0 12 5 9 10 -3 6 -10 10 -16 10 -5
0 -9 -4 -9 -10z"/>
<path d="M1335 3200 c-3 -5 1 -10 9 -10 9 0 16 5 16 10 0 6 -4 10 -9 10 -6 0
-13 -4 -16 -10z"/>
<path d="M810 3190 c0 -5 11 -10 25 -10 24 0 25 -3 25 -60 0 -33 4 -60 10 -60
6 0 10 27 10 60 0 57 1 60 25 60 14 0 25 5 25 10 0 6 -27 10 -60 10 -33 0 -60
-4 -60 -10z"/>
<path d="M947 3164 c-11 -11 -8 -104 3 -104 6 0 10 16 10 35 0 24 6 39 20 47
26 16 26 32 1 18 -13 -7 -20 -7 -23 1 -2 6 -7 7 -11 3z"/>
<path d="M1038 3163 c-30 -8 -20 -21 13 -19 44 2 50 -22 7 -26 -28 -2 -33 -7
-33 -28 0 -23 4 -25 43 -26 l42 -2 0 38 c0 56 -24 76 -72 63z m52 -67 c0 -16
-27 -29 -41 -20 -19 11 -9 34 16 34 15 0 25 -6 25 -14z"/>
<path d="M1147 3163 c-11 -10 -8 -103 3 -103 6 0 10 25 10 55 0 56 -1 60 -13
48z"/>
<path d="M1200 3114 c0 -64 17 -73 22 -11 3 37 6 42 28 42 22 0 25 -5 28 -42
4 -53 22 -57 22 -5 0 52 -12 65 -59 68 l-41 2 0 -54z"/>
<path d="M1343 3115 c0 -33 2 -45 4 -27 2 18 2 45 0 60 -2 15 -4 0 -4 -33z"/>
<path d="M1397 3164 c-11 -11 -8 -104 3 -104 6 0 10 15 10 34 0 37 21 62 45
52 10 -3 15 -19 15 -46 0 -22 5 -40 10 -40 6 0 10 20 10 45 0 39 -4 47 -25 57
-18 8 -28 8 -39 -1 -10 -8 -15 -9 -18 -1 -2 6 -7 8 -11 4z"/>
<path d="M1541 3154 c-24 -18 -28 -56 -6 -74 8 -7 29 -10 45 -8 24 4 30 1 28
-11 -3 -11 -15 -16 -41 -16 -44 0 -44 -19 0 -23 46 -5 63 19 63 86 l0 57 -34
2 c-19 1 -43 -5 -55 -13z m67 -36 c2 -19 -2 -28 -18 -33 -24 -8 -50 10 -50 35
0 24 10 31 40 28 19 -2 26 -10 28 -30z"/>
<path d="M3292 3064 c-16 -11 -22 -25 -22 -54 0 -55 49 -85 104 -64 18 7 23
64 6 64 -5 0 -10 -11 -10 -25 0 -21 -5 -25 -28 -25 -35 0 -52 16 -52 51 0 37
23 53 65 46 35 -6 48 6 19 17 -27 10 -59 7 -82 -10z"/>
<path d="M3443 3043 c-24 -9 -13 -20 17 -15 23 3 30 0 30 -12 0 -10 -9 -16
-22 -16 -66 -1 -60 -54 6 -57 l36 -1 0 44 c0 33 -5 46 -19 54 -21 11 -29 11
-48 3z m47 -67 c0 -18 -30 -30 -43 -17 -5 5 -6 14 -3 20 10 16 46 13 46 -3z"/>
<path d="M3550 2993 c0 -63 18 -71 22 -11 2 33 8 44 22 46 24 5 35 -13 37 -58
l1 -35 7 35 c9 47 18 60 41 60 14 0 21 -10 25 -37 10 -59 13 -62 14 -12 1 58
-17 78 -55 60 -14 -6 -31 -8 -37 -4 -7 5 -27 8 -44 8 l-33 0 0 -52z"/>
<path d="M3772 3034 c-55 -39 0 -113 65 -87 14 6 8 9 -21 13 -58 7 -59 30 -2
30 39 0 45 3 39 18 -7 20 -32 42 -48 42 -6 0 -21 -7 -33 -16z m58 -19 c11 -13
7 -15 -24 -15 -34 0 -44 8 -29 23 11 12 40 8 53 -8z"/>
<path d="M3885 3036 c-25 -18 -13 -43 24 -51 52 -11 39 -30 -18 -25 -14 1 -21
-2 -17 -9 10 -16 62 -13 76 4 16 19 -1 42 -33 47 -28 4 -19 23 11 23 26 -1 29
10 6 19 -22 9 -28 8 -49 -8z"/>
<path d="M920 2940 c-56 -56 8 -143 84 -114 29 11 16 23 -19 17 -43 -7 -65 9
-65 47 0 38 22 54 65 47 35 -6 48 6 19 17 -30 12 -64 6 -84 -14z"/>
<path d="M1301 2934 c-9 -11 -10 -18 -3 -23 6 -3 12 -24 14 -46 2 -33 7 -41
26 -43 12 -2 22 1 22 7 0 6 -6 10 -12 9 -8 -2 -14 11 -16 35 -3 30 0 37 14 37
16 0 15 2 -4 20 -25 24 -23 23 -41 4z"/>
<path d="M1062 2914 c-47 -32 -17 -101 40 -92 34 5 31 23 -4 23 -17 0 -33 6
-35 13 -3 8 8 12 36 12 29 0 41 4 41 14 0 13 -36 46 -50 46 -3 0 -16 -7 -28
-16z m56 -21 c2 -9 -7 -13 -27 -13 -30 0 -39 9 -24 24 11 10 46 3 51 -11z"/>
<path d="M1170 2873 c0 -63 18 -71 22 -10 3 37 6 42 28 42 22 0 25 -5 28 -42
4 -53 22 -57 22 -5 0 53 -12 66 -59 67 l-41 1 0 -53z"/>
<path d="M1390 2873 c0 -29 5 -53 10 -53 6 0 10 18 10 40 0 27 5 43 15 46 23
9 18 19 -10 19 -23 0 -25 -3 -25 -52z"/>
<path d="M1482 2914 c-43 -30 -17 -98 36 -92 37 4 38 23 0 23 -17 0 -33 6 -35
13 -3 8 8 12 36 12 45 0 53 16 23 43 -23 21 -32 21 -60 1z m56 -21 c2 -9 -7
-13 -27 -13 -30 0 -39 9 -24 24 11 10 46 3 51 -11z"/>
<path d="M0 480 l0 -480 3600 0 3600 0 0 480 0 480 -3600 0 -3600 0 0 -480z
m1734 169 c26 -20 26 -21 26 -157 0 -75 -4 -142 -8 -148 -15 -23 -50 -34 -74
-24 -49 20 -222 126 -232 142 -24 38 4 68 128 139 66 38 123 69 127 69 3 0 18
-9 33 -21z m1929 -23 c103 -43 128 -177 48 -257 -65 -65 -157 -65 -222 0 -124
123 13 325 174 257z m2105 2 c8 -8 12 -56 12 -148 0 -92 -4 -140 -12 -148 -17
-17 -279 -17 -296 0 -8 8 -12 56 -12 148 0 92 4 140 12 148 17 17 279 17 296
0z"/>
<path d="M1585 562 c-55 -32 -100 -64 -100 -72 0 -17 213 -142 226 -134 5 3 9
63 9 135 0 116 -2 129 -17 129 -10 0 -63 -26 -118 -58z"/>
<path d="M3555 591 c-119 -52 -80 -231 50 -231 66 0 122 70 111 138 -11 70
-98 120 -161 93z"/>
<path d="M5500 480 l0 -120 120 0 120 0 0 120 0 120 -120 0 -120 0 0 -120z"/>
</g>
</svg>
