<?xml version="1.0" standalone="no"?>
<!DOCTYPE svg PUBLIC "-//W3C//DTD SVG 20010904//EN"
 "http://www.w3.org/TR/2001/REC-SVG-20010904/DTD/svg10.dtd">
<svg version="1.0" xmlns="http://www.w3.org/2000/svg"
 width="512.000000pt" height="512.000000pt" viewBox="0 0 512.000000 512.000000"
 preserveAspectRatio="xMidYMid meet">

<g transform="translate(0.000000,512.000000) scale(0.100000,-0.100000)"
fill="#000000" stroke="none">
<path d="M1300 4092 c0 -4 314 -321 698 -705 l698 -698 211 213 c117 117 211
213 210 214 -50 35 -1706 965 -1732 973 -46 13 -85 14 -85 3z"/>
<path d="M1155 3928 c-9 -50 -1 -2755 8 -2764 4 -5 324 308 710 694 l702 702
-700 700 c-385 385 -703 700 -707 700 -4 0 -10 -15 -13 -32z"/>
<path d="M3054 2789 l-229 -229 230 -230 230 -230 265 151 c325 185 360 215
360 309 0 49 -17 84 -62 127 -25 24 -256 160 -559 329 -3 1 -108 -100 -235
-227z"/>
<path d="M1997 1732 c-383 -383 -697 -700 -697 -705 0 -13 64 -6 107 11 23 9
417 231 876 492 l835 475 -205 210 c-113 115 -208 211 -212 213 -3 1 -320
-312 -704 -696z"/>
</g>
</svg>
