<svg width="877" height="640" viewBox="0 0 877 640" fill="none" xmlns="http://www.w3.org/2000/svg">
<g clip-path="url(#clip0)">
<path d="M645 0.365234H0.275269V413.276H645V0.365234Z" fill="#E6E6E6"/>
<path d="M626.564 52.1543H18.7111V388.848H626.564V52.1543Z" fill="white"/>
<path d="M644.725 0H0V27.3903H644.725V0Z" fill="#6C63FF"/>
<path d="M20.3542 19.0799C23.1579 19.0799 25.4308 16.807 25.4308 14.0033C25.4308 11.1996 23.1579 8.92676 20.3542 8.92676C17.5505 8.92676 15.2776 11.1996 15.2776 14.0033C15.2776 16.807 17.5505 19.0799 20.3542 19.0799Z" fill="white"/>
<path d="M39.6236 19.0799C42.4273 19.0799 44.7002 16.807 44.7002 14.0033C44.7002 11.1996 42.4273 8.92676 39.6236 8.92676C36.8199 8.92676 34.5471 11.1996 34.5471 14.0033C34.5471 16.807 36.8199 19.0799 39.6236 19.0799Z" fill="white"/>
<path d="M58.893 19.0799C61.6967 19.0799 63.9696 16.807 63.9696 14.0033C63.9696 11.1996 61.6967 8.92676 58.893 8.92676C56.0893 8.92676 53.8165 11.1996 53.8165 14.0033C53.8165 16.807 56.0893 19.0799 58.893 19.0799Z" fill="white"/>
<path d="M212.388 79.8477H93.5006V208.829H212.388V79.8477Z" fill="#E6E6E6"/>
<path d="M382.08 79.8477H263.193V208.829H382.08V79.8477Z" fill="#E6E6E6"/>
<path d="M551.772 79.8477H432.885V208.829H551.772V79.8477Z" fill="#E6E6E6"/>
<path d="M212.388 232.176H93.5006V361.158H212.388V232.176Z" fill="#E6E6E6"/>
<path d="M382.08 232.176H263.193V361.158H382.08V232.176Z" fill="#E6E6E6"/>
<path d="M551.772 232.176H432.885V361.158H551.772V232.176Z" fill="#E6E6E6"/>
<path d="M291.928 265.325L313.65 256.737L316.175 299.676C316.175 299.676 320.722 312.81 319.207 317.862C319.207 317.862 320.217 326.45 317.691 326.955C315.165 327.46 308.093 328.47 307.588 327.965C307.083 327.46 307.083 325.945 307.083 325.945C307.083 325.945 302.031 329.481 301.526 333.522C301.526 333.522 280.309 340.089 279.804 334.027C279.299 327.965 290.412 322.914 290.412 322.914L299 309.779L291.928 265.325Z" fill="white"/>
<path d="M337.897 265.325L359.619 256.737L362.145 299.676C362.145 299.676 366.692 312.81 365.176 317.862C365.176 317.862 366.187 326.45 363.661 326.955C361.135 327.46 354.063 328.47 353.557 327.965C353.052 327.46 353.052 325.945 353.052 325.945C353.052 325.945 348.001 329.481 347.496 333.522C347.496 333.522 326.279 340.089 325.774 334.027C325.268 327.965 336.382 322.914 336.382 322.914L344.97 309.779L337.897 265.325Z" fill="white"/>
<path d="M340.022 99.5095C340.022 99.5095 335.397 112.433 340.756 118.261L336.289 133.614C336.289 133.614 352.162 181.236 347.627 187.887C347.627 187.887 330.695 196.354 296.831 184.864L310.588 131.497L308.623 108.971L311.344 98.3889L317.391 97.7842C317.391 97.7842 313.763 111.39 320.415 113.507C327.067 115.623 333.556 98.1238 333.556 98.1238L340.022 99.5095Z" fill="#3F3D56"/>
<path d="M126.422 182.941L132.258 185.329L160.116 148.716L168.871 191.696L174.708 190.635C178.452 153.58 181.505 115.785 177.759 97.909L156.136 96.9805L146.32 128.287L141.544 149.512L126.422 182.941Z" fill="white"/>
<path d="M480.678 97.6123C480.678 97.6123 472.712 108.687 473.101 113.155C473.489 117.624 478.541 190.482 478.541 190.482L490.392 191.065L486.895 138.607L489.809 124.424L496.998 190.482L511.57 190.87L498.552 105.19L496.027 97.6124L480.678 97.6123Z" fill="white"/>
<path d="M525.7 276.018C523.585 273.48 519.949 272.108 516.458 271.366C516.562 271.049 505.839 268.834 505.66 269.29L501.619 266.071L489.204 272.518L482.227 267.769L478.985 268.919C479.117 268.348 468.924 270.113 468.924 270.113C466.977 270.183 464.49 270.305 461.706 270.519C451.957 271.269 451.207 296.516 451.207 296.516C455.693 294.681 460.476 293.68 465.321 293.561L467.956 323.763C481.508 322.601 495.722 323.954 510.451 327.263L517.36 303.523L533.449 297.266C533.449 297.266 530.7 282.017 525.7 276.018Z" fill="#3F3D56"/>
<path d="M180.441 261.638C178.698 259.547 175.703 258.416 172.826 257.805C172.912 257.544 164.077 255.719 163.929 256.095L160.599 253.442L150.369 258.755L144.62 254.841L141.95 255.789C142.059 255.318 133.66 256.772 133.66 256.772C132.056 256.83 130.006 256.93 127.713 257.107C119.68 257.725 119.062 278.528 119.062 278.528C122.758 277.016 126.699 276.191 130.691 276.093L132.862 337.007C144.029 336.049 155.741 337.164 167.877 339.891L173.569 284.301L186.826 279.146C186.826 279.146 184.56 266.581 180.441 261.638Z" fill="white"/>
<path d="M613 612.618L532.578 629.079L530.745 628.892L460.071 621.759V532.196L546.587 517.569L609.346 524.888L609.369 525.285V525.472L613 612.618Z" fill="#E6E6E6"/>
<path opacity="0.1" d="M613 612.618L532.578 629.079L530.745 628.892V537.076L609.369 525.285L613 612.618Z" fill="black"/>
<path opacity="0.05" d="M609.369 525.472L609.346 525.495L530.745 537.076L460.071 532.196L546.587 517.569L609.346 524.888L609.369 525.285V525.472Z" fill="black"/>
<path d="M518.697 566.644L469.801 563.453L468.303 586.404L517.199 589.595L518.697 566.644Z" fill="white"/>
<path d="M506.733 573.38L480.788 571.687L480.267 579.67L506.212 581.363L506.733 573.38Z" fill="#6C63FF"/>
<path d="M722 612.618L641.578 629.079L639.745 628.892L569.071 621.759V532.196L655.587 517.569L718.346 524.888L718.369 525.285V525.472L722 612.618Z" fill="#6C63FF"/>
<path opacity="0.1" d="M722 612.618L641.578 629.079L639.745 628.892V537.076L718.369 525.285L722 612.618Z" fill="black"/>
<path opacity="0.05" d="M718.369 525.472L718.346 525.495L639.745 537.076L569.071 532.196L655.587 517.569L718.346 524.888L718.369 525.285V525.472Z" fill="black"/>
<path d="M627.697 566.644L578.801 563.453L577.303 586.404L626.199 589.595L627.697 566.644Z" fill="white"/>
<path d="M615.733 573.38L589.788 571.687L589.267 579.67L615.212 581.363L615.733 573.38Z" fill="#6C63FF"/>
<path d="M780.195 165.621C780.195 165.621 794.384 202.277 768.37 202.277C742.356 202.277 808.574 238.934 834.588 217.65C860.602 196.365 845.23 195.183 845.23 195.183C845.23 195.183 810.939 198.73 812.121 167.986L780.195 165.621Z" fill="#966462"/>
<path d="M798.679 176.655C821.776 176.655 840.499 157.931 840.499 134.835C840.499 111.739 821.776 93.0156 798.679 93.0156C775.583 93.0156 756.86 111.739 756.86 134.835C756.86 157.931 775.583 176.655 798.679 176.655Z" fill="#2F2E41"/>
<path d="M773.1 318.159L728.166 434.041C728.166 434.041 705.7 469.515 713.977 504.988C722.254 540.462 745 605.025 745 605.025C745 605.025 762.183 609.397 761 594.025C759.818 578.653 761.737 504.127 744 484.025L815.669 402.114L818.034 495.529C818.034 495.529 813.304 538.097 814.486 557.017C815.669 575.936 818.034 607.863 818.034 607.863L832.223 605.498C832.223 605.498 851.365 518.404 849 490.025C849 490.025 892.934 352.134 848 319.025L773.1 318.159Z" fill="#2F2E41"/>
<path d="M749.94 604.832C749.94 604.832 744.154 603.358 743.488 608.665C742.821 613.971 730.652 637.568 743.357 638.749C756.062 639.931 760.457 628.045 762.585 619.688C764.713 611.331 765.519 610.852 767.296 609.251C769.073 607.65 773.302 598.878 767.995 598.211C762.689 597.545 759.969 592.326 759.969 592.326C759.969 592.326 758.296 606.959 749.94 604.832Z" fill="#2F2E41"/>
<path d="M827.297 600.728C827.297 600.728 816.567 599.196 817.333 603.028C818.1 606.86 815.801 622.954 817.333 624.487C818.866 626.02 821.932 629.085 821.932 631.385C821.932 633.684 822.698 641.348 835.727 639.049C848.756 636.75 845.69 625.253 844.924 623.721C844.158 622.188 834.961 614.524 835.727 609.925C836.494 605.327 831.895 597.663 827.297 600.728Z" fill="#2F2E41"/>
<path d="M799.196 181.242C815.193 181.242 828.162 168.273 828.162 152.276C828.162 136.278 815.193 123.31 799.196 123.31C783.198 123.31 770.229 136.278 770.229 152.276C770.229 168.273 783.198 181.242 799.196 181.242Z" fill="#A56D6A"/>
<path d="M826.902 192.226C826.902 192.226 837.005 212.215 806.553 212.782C797.191 212.956 786.057 206.133 781.461 197.976C778.754 193.17 778.07 199.807 773.691 199.321C765.4 198.4 756.542 201.839 748.616 206.054C747.592 206.598 746.789 207.48 746.343 208.55C745.898 209.619 745.838 210.811 746.173 211.92C752.184 231.864 769.35 327.801 772 333.024C778.767 346.363 852 324.024 852 324.024C853.004 287.73 839.83 236.953 863 200.024C857.903 196.194 852.037 193.514 845.806 192.168C839.574 190.822 833.125 190.842 826.902 192.226V192.226Z" fill="#575A89"/>
<path d="M800.88 104.021C810.2 104.021 817.755 96.4656 817.755 87.146C817.755 77.8265 810.2 70.2715 800.88 70.2715C791.561 70.2715 784.006 77.8265 784.006 87.146C784.006 96.4656 791.561 104.021 800.88 104.021Z" fill="#2F2E41"/>
<path d="M796.12 98.8746C796.121 94.844 797.563 90.9466 800.187 87.8871C802.811 84.8277 806.444 82.8083 810.427 82.1942C808.023 81.8263 805.568 81.9824 803.23 82.6516C800.893 83.3209 798.727 84.4876 796.882 86.0717C795.037 87.6559 793.556 89.6201 792.541 91.8299C791.526 94.0397 791 96.4428 791 98.8746C791 101.306 791.526 103.709 792.541 105.919C793.556 108.129 795.037 110.093 796.882 111.677C798.727 113.262 800.893 114.428 803.23 115.097C805.568 115.767 808.023 115.923 810.427 115.555C806.444 114.941 802.811 112.921 800.187 109.862C797.563 106.803 796.121 102.905 796.12 98.8746Z" fill="#2F2E41"/>
<path d="M796.12 98.8746C796.121 94.844 797.563 90.9466 800.187 87.8871C802.811 84.8277 806.444 82.8083 810.427 82.1942C808.023 81.8263 805.568 81.9824 803.23 82.6516C800.893 83.3209 798.727 84.4876 796.882 86.0717C795.037 87.6559 793.556 89.6201 792.541 91.8299C791.526 94.0397 791 96.4428 791 98.8746C791 101.306 791.526 103.709 792.541 105.919C793.556 108.129 795.037 110.093 796.882 111.677C798.727 113.262 800.893 114.428 803.23 115.097C805.568 115.767 808.023 115.923 810.427 115.555C806.444 114.941 802.811 112.921 800.187 109.862C797.563 106.803 796.121 102.905 796.12 98.8746Z" fill="#2F2E41"/>
<path d="M877 483.618L796.578 500.079L794.745 499.892L724.071 492.759V403.196L810.587 388.569L873.346 395.888L873.369 396.285V396.472L877 483.618Z" fill="#E6E6E6"/>
<path opacity="0.1" d="M877 483.618L796.578 500.079L794.745 499.892V408.076L873.369 396.285L877 483.618Z" fill="black"/>
<path opacity="0.05" d="M873.369 396.472L873.346 396.495L794.745 408.076L724.071 403.196L810.587 388.569L873.346 395.888L873.369 396.285V396.472Z" fill="black"/>
<path d="M782.697 437.644L733.801 434.453L732.303 457.404L781.199 460.595L782.697 437.644Z" fill="white"/>
<path d="M770.733 444.38L744.788 442.687L744.267 450.67L770.212 452.363L770.733 444.38Z" fill="#6C63FF"/>
<path d="M751.721 380.194C751.721 380.194 722.159 403.844 735.166 412.121C748.174 420.398 763.546 380.194 763.546 380.194H751.721Z" fill="#A56D6A"/>
<path d="M753 205.025C751.469 203.299 732.133 213.16 735 226.025L736.349 315.159C736.349 315.159 729.254 388.472 746.991 388.472C764.728 388.472 762.635 390.937 765 385.025C767.365 379.112 768 329.025 768 329.025L753 205.025Z" fill="#575A89"/>
<path d="M844.454 372.194C844.454 372.194 859.827 412.398 872.834 404.121C885.841 395.844 856.279 372.194 856.279 372.194H844.454Z" fill="#A56D6A"/>
<path d="M848 322.025C848 322.025 840.635 371.112 843 377.025C845.365 382.937 843.272 380.472 861.009 380.472C878.746 380.472 871.651 307.159 871.651 307.159L873 218.025C875.867 205.16 856.531 195.299 855 197.025L838 255.025L848 322.025Z" fill="#575A89"/>
<circle cx="780" cy="129" r="4" fill="#2F2E41"/>
<circle cx="784" cy="127" r="4" fill="#2F2E41"/>
<circle cx="788" cy="123" r="4" fill="#2F2E41"/>
<circle cx="795" cy="123" r="4" fill="#2F2E41"/>
<circle cx="801" cy="123" r="4" fill="#2F2E41"/>
<circle cx="807" cy="123" r="4" fill="#2F2E41"/>
<circle cx="812" cy="126" r="4" fill="#2F2E41"/>
<circle cx="817" cy="129" r="4" fill="#2F2E41"/>
<circle cx="816" cy="89" r="4" fill="#2F2E41"/>
<circle cx="814" cy="82" r="4" fill="#2F2E41"/>
<circle cx="813" cy="78" r="4" fill="#2F2E41"/>
<circle cx="810" cy="74" r="4" fill="#2F2E41"/>
<circle cx="805" cy="74" r="4" fill="#2F2E41"/>
<circle cx="800" cy="72" r="4" fill="#2F2E41"/>
<circle cx="795" cy="72" r="4" fill="#2F2E41"/>
<circle cx="792" cy="76" r="4" fill="#2F2E41"/>
<circle cx="788" cy="80" r="4" fill="#2F2E41"/>
<circle cx="787" cy="86" r="4" fill="#2F2E41"/>
<circle cx="788" cy="91" r="4" fill="#2F2E41"/>
<circle cx="814" cy="93" r="4" fill="#2F2E41"/>
<circle cx="778" cy="133" r="4" fill="#2F2E41"/>
<circle cx="774" cy="135" r="4" fill="#2F2E41"/>
<circle cx="826" cy="137" r="4" fill="#2F2E41"/>
</g>
<defs>
<clipPath id="clip0">
<rect width="877" height="639.474" fill="white"/>
</clipPath>
</defs>
</svg>
