<svg version="1.0" xmlns="http://www.w3.org/2000/svg"
 width="900.000000pt" height="620.000000pt" viewBox="0 0 900.000000 620.000000"
 preserveAspectRatio="xMidYMid meet">
<g transform="translate(0.000000,620.000000) scale(0.100000,-0.100000)"
fill="#000000" stroke="none">
<path d="M2145 5919 c-182 -23 -340 -177 -374 -363 -15 -82 -15 -4654 0 -4746
27 -170 156 -311 329 -361 36 -10 519 -13 2380 -14 1284 0 2362 3 2395 7 163
22 305 146 356 309 18 59 19 133 19 2433 0 2301 -1 2375 -19 2428 -28 81 -45
110 -101 171 -57 62 -161 122 -233 132 -55 8 -4687 12 -4752 4z m930 -889
c320 -33 494 -334 358 -618 -40 -83 -142 -183 -218 -213 -54 -21 -75 -24 -205
-24 l-145 1 -75 37 c-185 91 -270 250 -241 449 25 181 157 325 334 363 77 17
82 17 192 5z m2610 -1165 c333 -67 560 -287 659 -641 60 -209 59 -190 63
-1071 l4 -813 -420 0 -420 0 -3 768 -3 767 -27 73 c-74 202 -184 283 -384 280
-62 -1 -87 -5 -91 -15 -4 -11 -8 -11 -20 -1 -12 10 -14 9 -11 -8 1 -10 7 -22
12 -25 4 -4 3 -10 -3 -13 -6 -4 -11 -1 -11 6 0 9 -3 9 -10 -2 -6 -10 -10 -11
-10 -2 0 6 -5 12 -11 12 -6 0 -9 -6 -6 -14 3 -8 -1 -17 -10 -20 -19 -8 -45 12
-36 28 4 6 -1 5 -11 -3 -10 -9 -15 -23 -12 -34 2 -10 2 -16 -1 -13 -3 3 -15 1
-27 -5 -20 -10 -20 -10 -2 5 11 9 15 16 9 16 -12 0 -112 -103 -137 -143 -15
-22 -16 -30 -6 -42 7 -9 10 -18 6 -22 -3 -3 -6 -1 -6 5 0 7 -5 12 -11 12 -6 0
-9 -7 -6 -15 4 -8 2 -17 -3 -20 -5 -3 -12 -27 -15 -53 -4 -26 -8 -56 -10 -67
-2 -11 -4 -343 -4 -737 l-1 -718 -415 0 -415 0 -2 1253 -3 1252 418 -3 c321
-2 417 -5 418 -15 0 -6 0 -58 -1 -114 -1 -70 3 -103 11 -109 9 -5 10 -2 6 10
-5 12 -3 16 5 13 7 -2 11 -13 9 -23 -3 -18 -2 -18 16 -1 11 9 24 17 29 17 5 0
5 -4 -1 -8 -15 -11 -38 -42 -32 -42 4 0 15 10 26 22 17 17 18 24 8 36 -10 13
-9 14 12 3 13 -7 21 -8 17 -3 -12 19 -13 71 -2 75 17 6 37 -4 30 -15 -4 -6
-10 -5 -16 3 -8 11 -9 10 -4 -3 3 -10 1 -18 -5 -18 -6 0 -7 -4 -4 -10 9 -15
25 -12 25 4 0 8 11 17 25 20 14 4 25 10 25 15 0 4 20 21 45 36 24 16 42 32 39
37 -3 4 1 5 9 2 8 -3 18 0 23 7 5 8 3 10 -6 4 -9 -5 -11 -4 -6 4 4 6 11 9 16
6 12 -7 41 6 34 16 -3 5 3 6 12 2 13 -5 15 -3 9 7 -5 8 -4 11 2 7 10 -7 107
26 99 34 -2 2 8 5 22 6 15 1 50 6 77 11 102 19 291 14 420 -13z m-2265 -1275
l0 -1250 -409 0 -409 0 -4 268 c-8 479 -9 2217 -2 2225 4 4 191 7 416 7 l408
0 0 -1250z"/>
</g>
</svg>
