<?xml version="1.0" standalone="no"?>
<!DOCTYPE svg PUBLIC "-//W3C//DTD SVG 20010904//EN"
 "http://www.w3.org/TR/2001/REC-SVG-20010904/DTD/svg10.dtd">
<svg version="1.0" xmlns="http://www.w3.org/2000/svg"
 width="675.000000pt" height="370.000000pt" viewBox="0 0 675.000000 370.000000"
 preserveAspectRatio="xMidYMid meet">

<g transform="translate(0.000000,370.000000) scale(0.100000,-0.100000)"
fill="#000000" stroke="none">
<path d="M170 2846 l0 -524 28 -5 c27 -6 97 -6 707 -7 l335 0 0 -1070 0 -1070
530 0 530 0 2 1070 3 1070 530 3 530 2 3 528 2 527 -1600 0 -1600 0 0 -524z"/>
<path d="M4452 2843 l3 -528 910 -2 c501 -1 979 0 1063 3 l152 6 0 524 0 524
-1065 0 -1065 0 2 -527z"/>
<path d="M3380 1235 l0 -1065 1600 0 1600 0 0 529 0 530 -1067 -1 -1068 0 -5
533 -5 534 -527 3 -528 2 0 -1065z"/>
</g>
</svg>
